<svg width="27" height="28" viewBox="0 0 27 28" fill="none" xmlns="http://www.w3.org/2000/svg">
<rect x="0.5" y="1" width="26" height="26" rx="13" fill="white"/>
<rect x="0.5" y="1" width="26" height="26" rx="13" stroke="#13378D"/>
<path d="M17 11.667C17 10.7387 16.6313 9.8485 15.9749 9.19212C15.3185 8.53574 14.4283 8.16699 13.5 8.16699C12.5717 8.16699 11.6815 8.53574 11.0251 9.19212C10.3687 9.8485 10 10.7387 10 11.667C10 15.7503 8.25 16.917 8.25 16.917H18.75C18.75 16.917 17 15.7503 17 11.667Z" stroke="#13378D" stroke-width="1.25" stroke-linecap="round" stroke-linejoin="round"/>
<path d="M14.5086 19.25C14.406 19.4268 14.2588 19.5735 14.0817 19.6756C13.9046 19.7776 13.7038 19.8313 13.4994 19.8313C13.295 19.8313 13.0942 19.7776 12.9171 19.6756C12.74 19.5735 12.5928 19.4268 12.4902 19.25" stroke="#13378D" stroke-width="1.25" stroke-linecap="round" stroke-linejoin="round"/>
</svg>
