<svg width="35" height="39" viewBox="0 0 35 39" fill="none" xmlns="http://www.w3.org/2000/svg">
<path d="M0.398438 32.1547V6.5015C0.398438 4.98958 0.999048 3.53958 2.06814 2.47048C3.13723 1.40139 4.58723 0.800781 6.09916 0.800781H32.7025C33.2065 0.800781 33.6898 1.00098 34.0462 1.35735C34.4026 1.71371 34.6028 2.19705 34.6028 2.70102V36.9053C34.6028 37.4093 34.4026 37.8927 34.0462 38.249C33.6898 38.6054 33.2065 38.8056 32.7025 38.8056H7.04928C5.28537 38.8056 3.5937 38.1049 2.34642 36.8576C1.09915 35.6103 0.398438 33.9187 0.398438 32.1547ZM30.8023 35.0051V29.3044H7.04928C6.29332 29.3044 5.56832 29.6047 5.03377 30.1392C4.49922 30.6738 4.19892 31.3988 4.19892 32.1547C4.19892 32.9107 4.49922 33.6357 5.03377 34.1703C5.56832 34.7048 6.29332 35.0051 7.04928 35.0051H30.8023ZM4.19892 26.1443C5.08954 25.7214 6.06334 25.5026 7.04928 25.5039H30.8023V4.60126H6.09916C5.59518 4.60126 5.11185 4.80147 4.75549 5.15783C4.39912 5.51419 4.19892 5.99753 4.19892 6.5015V26.1443Z" fill="#0051BA"/>
</svg>
