<svg width="20" height="20" viewBox="0 0 16 16" fill="none" xmlns="http://www.w3.org/2000/svg">
<path d="M13.0703 2.1833H11.5891V1.44272C11.5891 1.24631 11.5111 1.05794 11.3722 0.919058C11.2333 0.780173 11.045 0.702148 10.8485 0.702148C10.6521 0.702148 10.4638 0.780173 10.3249 0.919058C10.186 1.05794 10.108 1.24631 10.108 1.44272V2.1833H5.6645V1.44272C5.6645 1.24631 5.58648 1.05794 5.44759 0.919058C5.30871 0.780173 5.12034 0.702148 4.92393 0.702148C4.72751 0.702148 4.53915 0.780173 4.40026 0.919058C4.26138 1.05794 4.18335 1.24631 4.18335 1.44272V2.1833H2.7022C2.11296 2.1833 1.54785 2.41738 1.1312 2.83403C0.714543 3.25069 0.480469 3.81579 0.480469 4.40503V13.2919C0.480469 13.8812 0.714543 14.4463 1.1312 14.8629C1.54785 15.2796 2.11296 15.5137 2.7022 15.5137H13.0703C13.6595 15.5137 14.2246 15.2796 14.6413 14.8629C15.0579 14.4463 15.292 13.8812 15.292 13.2919V4.40503C15.292 3.81579 15.0579 3.25069 14.6413 2.83403C14.2246 2.41738 13.6595 2.1833 13.0703 2.1833ZM13.8108 13.2919C13.8108 13.4884 13.7328 13.6767 13.5939 13.8156C13.4551 13.9545 13.2667 14.0325 13.0703 14.0325H2.7022C2.50579 14.0325 2.31742 13.9545 2.17853 13.8156C2.03965 13.6767 1.96162 13.4884 1.96162 13.2919V8.10791H13.8108V13.2919ZM13.8108 6.62676H1.96162V4.40503C1.96162 4.20862 2.03965 4.02025 2.17853 3.88136C2.31742 3.74248 2.50579 3.66445 2.7022 3.66445H4.18335V4.40503C4.18335 4.60144 4.26138 4.78981 4.40026 4.9287C4.53915 5.06758 4.72751 5.14561 4.92393 5.14561C5.12034 5.14561 5.30871 5.06758 5.44759 4.9287C5.58648 4.78981 5.6645 4.60144 5.6645 4.40503V3.66445H10.108V4.40503C10.108 4.60144 10.186 4.78981 10.3249 4.9287C10.4638 5.06758 10.6521 5.14561 10.8485 5.14561C11.045 5.14561 11.2333 5.06758 11.3722 4.9287C11.5111 4.78981 11.5891 4.60144 11.5891 4.40503V3.66445H13.0703C13.2667 3.66445 13.4551 3.74248 13.5939 3.88136C13.7328 4.02025 13.8108 4.20862 13.8108 4.40503V6.62676Z" fill="#323232"/>
</svg>
