<svg width="28" height="28" viewBox="0 0 28 28" fill="none" xmlns="http://www.w3.org/2000/svg">
  <rect x="4" width="20" height="20" rx="10" fill="#ED4C5C"/>
  <path d="M18.4191 6.30494C18.1637 6.04944 17.8605 5.84676 17.5268 5.70848C17.193 5.5702 16.8353 5.49902 16.4741 5.49902C16.1128 5.49902 15.7551 5.5702 15.4214 5.70848C15.0877 5.84676 14.7845 6.04944 14.5291 6.30494L13.9991 6.83494L13.4691 6.30494C12.9532 5.78909 12.2536 5.49929 11.5241 5.49929C10.7946 5.49929 10.0949 5.78909 9.57908 6.30494C9.06324 6.82078 8.77344 7.52042 8.77344 8.24994C8.77344 8.97945 9.06324 9.67909 9.57908 10.1949L10.1091 10.7249L13.9991 14.6149L17.8891 10.7249L18.4191 10.1949C18.6746 9.93956 18.8773 9.63634 19.0155 9.30261C19.1538 8.96888 19.225 8.61118 19.225 8.24994C19.225 7.88869 19.1538 7.53099 19.0155 7.19726C18.8773 6.86353 18.6746 6.56031 18.4191 6.30494Z" stroke="white" stroke-linecap="round" stroke-linejoin="round"/>
</svg>

