<svg width="16" height="16" viewBox="0 0 16 16" fill="none" xmlns="http://www.w3.org/2000/svg">
<path d="M8.13233 0.702148C12.2225 0.702148 15.5381 4.01771 15.5381 8.10791C15.5381 12.1981 12.2225 15.5137 8.13233 15.5137C4.04212 15.5137 0.726562 12.1981 0.726562 8.10791C0.726562 4.01771 4.04212 0.702148 8.13233 0.702148ZM8.13233 2.1833C6.56102 2.1833 5.05407 2.8075 3.94299 3.91858C2.83191 5.02966 2.20772 6.53661 2.20772 8.10791C2.20772 9.67922 2.83191 11.1862 3.94299 12.2972C5.05407 13.4083 6.56102 14.0325 8.13233 14.0325C9.70363 14.0325 11.2106 13.4083 12.3217 12.2972C13.4327 11.1862 14.0569 9.67922 14.0569 8.10791C14.0569 6.53661 13.4327 5.02966 12.3217 3.91858C11.2106 2.8075 9.70363 2.1833 8.13233 2.1833ZM8.13233 3.66445C8.31372 3.66448 8.48879 3.73107 8.62435 3.85161C8.7599 3.97214 8.8465 4.13824 8.86772 4.31838L8.8729 4.40503V7.80132L10.8776 9.80606C11.0105 9.93933 11.0876 10.1182 11.0933 10.3062C11.0991 10.4943 11.033 10.6775 10.9086 10.8186C10.7841 10.9598 10.6106 11.0482 10.4233 11.0661C10.236 11.0839 10.0489 11.0298 9.90008 10.9147L9.83047 10.8532L7.60874 8.6315C7.49364 8.5163 7.41972 8.36638 7.39842 8.20493L7.39175 8.10791V4.40503C7.39175 4.20862 7.46978 4.02025 7.60866 3.88136C7.74755 3.74248 7.93591 3.66445 8.13233 3.66445Z" fill="#323232"/>
</svg>
