<svg width="448" height="421" viewBox="0 0 448 421" fill="none" xmlns="http://www.w3.org/2000/svg">
<path d="M65.9059 193.958C65.8426 193.958 66.6444 189.466 66.7182 189.141C67.6255 185.925 71.0437 180.338 74.3459 180.35C74.896 180.367 75.4366 180.517 75.9325 180.79C76.4283 181.062 76.8683 181.451 77.2238 181.93C77.5792 182.41 77.842 182.969 77.9951 183.573C78.1482 184.176 78.1881 184.809 78.1122 185.432C77.8696 188.081 75.7807 190.345 73.8922 191.645C71.6767 193.223 65.9059 193.958 65.9059 193.958Z" fill="#0051BA"/>
<path d="M59.5004 163.755C62.6654 165.032 64.1635 171.607 64.058 174.979C64.058 175.268 63.4672 179.796 63.4145 179.796H63.3512C63.5938 180.831 63.8576 181.951 64.1213 183.18C64.5855 185.444 65.0919 187.996 65.4823 190.838C65.9349 193.883 66.2308 196.955 66.3685 200.039C66.5367 203.495 66.4343 206.96 66.0625 210.395C66.0576 210.435 66.0576 210.476 66.0625 210.516C66.474 209.516 67.6978 206.747 67.8033 206.554C69.428 203.736 74.0067 199.328 77.2033 200.376C77.7282 200.559 78.2134 200.866 78.6273 201.277C79.0412 201.688 79.3745 202.194 79.6055 202.763C79.8364 203.331 79.9598 203.948 79.9677 204.574C79.9755 205.201 79.8676 205.822 79.6509 206.397C78.8069 208.878 76.2749 210.431 74.1544 211.118C71.7595 211.901 66.4212 210.985 65.9992 210.901C65.548 214.387 64.8925 217.835 64.0369 221.221C63.5446 223.196 63.0101 225.167 62.4333 227.134C62.8026 226.279 63.1507 225.521 63.2035 225.424C64.8282 222.594 69.4174 218.199 72.6035 219.247C73.1284 219.429 73.6136 219.736 74.0275 220.147C74.4414 220.559 74.7747 221.065 75.0057 221.633C75.2366 222.201 75.36 222.819 75.3679 223.445C75.3757 224.071 75.2678 224.692 75.0511 225.268C74.2071 227.748 71.6751 229.302 69.5546 229.988C67.434 230.675 62.8342 229.988 61.6315 229.808L60.9669 232.072C59.9119 235.684 58.7619 239.297 57.8019 242.838C57.4537 244.042 57.1478 245.342 56.8418 246.595C57.1794 245.836 57.4643 245.198 57.517 245.102C59.1312 242.284 63.7204 237.876 66.9065 238.924C67.4304 239.108 67.9146 239.416 68.3278 239.828C68.7411 240.239 69.0742 240.745 69.3058 241.312C69.5374 241.879 69.6623 242.496 69.6724 243.121C69.6826 243.747 69.5777 244.368 69.3647 244.945C68.5207 247.438 65.9781 248.979 63.8576 249.678C61.737 250.376 57.5909 249.762 56.1561 249.533C55.8712 250.822 55.5969 252.11 55.3754 253.375C55.2382 254.254 55.0589 255.073 54.9639 255.952L54.6474 258.541C54.4997 260.191 54.3309 261.889 54.2254 263.502C54.141 264.622 54.0777 265.694 54.0144 266.778C54.352 265.574 55.0694 263.081 55.0694 262.888C56.2378 260.239 57.9812 257.975 60.1334 256.313C60.2481 256.006 60.3933 255.715 60.566 255.446C60.8646 254.92 61.2572 254.472 61.7181 254.13C62.1789 253.789 62.6976 253.563 63.2403 253.467C63.783 253.37 64.3374 253.405 64.8674 253.57C65.3973 253.735 65.8909 254.025 66.3157 254.422C68.8266 256.891 68.1936 263.659 67.0437 266.766C66.9804 266.946 66.0414 268.837 65.4401 270.029C65.8937 269.391 66.3157 268.765 66.7905 268.127C67.7083 266.838 68.6578 265.586 69.6706 264.237L71.2214 262.322C71.7278 261.672 72.3398 261.118 72.8989 260.407C74.2176 258.95 75.6208 257.541 77.0661 256.156C76.085 255.241 72.6246 251.918 71.6329 249.654C70.6412 247.39 69.9344 244.222 70.9683 241.826C71.1956 241.255 71.5257 240.744 71.937 240.327C72.3484 239.911 72.8318 239.598 73.356 239.408C73.8802 239.218 74.4335 239.157 74.98 239.227C75.5264 239.297 76.0539 239.497 76.5281 239.815C79.3238 241.826 79.6087 248.63 78.8807 251.857C78.8807 252.062 78.0789 254.338 77.6464 255.578C78.522 254.76 79.3871 253.941 80.2944 253.17C82.9108 250.87 85.6222 248.618 88.3124 246.366L90.7706 244.295C90.4224 243.97 86.2446 240.116 85.1263 237.575C84.1452 235.323 83.4278 232.144 84.4617 229.76C84.6878 229.187 85.0172 228.675 85.4283 228.257C85.8395 227.84 86.3232 227.526 86.8479 227.336C87.3726 227.146 87.9264 227.085 88.4733 227.156C89.0201 227.227 89.5477 227.429 90.0215 227.748C92.8278 229.748 93.1021 236.551 92.3742 239.791C92.3214 240.032 91.2348 243.307 90.9288 244.126C92.7223 242.597 94.5053 241.055 96.2038 239.442C98.5149 237.291 100.7 234.97 102.745 232.493C102.587 232.337 98.2083 228.339 97.0689 225.749C96.0772 223.498 95.3704 220.306 96.4043 217.922C96.6305 217.351 96.9595 216.84 97.3699 216.424C97.7803 216.007 98.2628 215.694 98.7862 215.504C99.3096 215.315 99.8621 215.253 100.408 215.323C100.953 215.393 101.48 215.593 101.954 215.911C104.76 217.922 105.045 224.726 104.317 227.953C104.317 228.17 103.441 230.663 103.03 231.843L103.188 231.963C105.187 229.403 106.983 226.647 108.558 223.726C109.444 222.125 110.204 220.547 110.921 218.994C110.035 218.343 106.036 215.321 104.781 213.117C103.526 210.913 102.576 207.927 103.367 205.422C103.537 204.825 103.815 204.275 104.183 203.809C104.551 203.343 105.001 202.97 105.504 202.715C106.006 202.461 106.55 202.33 107.1 202.332C107.65 202.333 108.193 202.467 108.695 202.724C111.681 204.374 112.609 211.154 112.198 214.442C112.198 214.622 111.776 216.441 111.47 217.753C111.776 217.043 112.113 216.32 112.398 215.634C113.453 213.069 114.35 210.636 115.088 208.408C115.51 207.204 115.858 206.06 116.143 205C115.563 203.796 113.305 199.172 113.084 196.571C112.862 193.97 113.221 190.814 114.941 189.008C115.332 188.568 115.8 188.227 116.315 188.008C116.829 187.788 117.379 187.694 117.927 187.733C118.475 187.772 119.01 187.942 119.497 188.232C119.984 188.522 120.412 188.926 120.754 189.417C122.737 192.44 120.849 198.907 119.139 201.653C118.992 201.893 116.302 205.265 116.27 205.265V205.193C115.974 206.217 115.658 207.313 115.278 208.493C114.582 210.684 113.77 213.141 112.725 215.718C111.621 218.538 110.378 221.284 109.001 223.943C107.465 226.926 105.699 229.747 103.726 232.373L103.652 232.469C104.475 231.891 106.817 230.35 107.018 230.253C109.739 228.929 115.669 228.182 117.842 231.024C118.192 231.508 118.448 232.07 118.595 232.674C118.742 233.279 118.776 233.912 118.694 234.532C118.612 235.152 118.417 235.746 118.121 236.274C117.826 236.803 117.436 237.254 116.977 237.599C115.067 239.141 112.208 238.803 110.098 238.081C107.724 237.214 103.768 233.095 103.409 232.758C101.349 235.382 99.1353 237.844 96.7841 240.128C95.4231 241.465 94.0094 242.765 92.5641 244.054C93.292 243.572 93.9461 243.151 94.0411 243.103C96.7524 241.778 102.681 241.031 104.855 243.873C105.206 244.356 105.464 244.918 105.612 245.523C105.76 246.128 105.794 246.761 105.712 247.382C105.631 248.003 105.435 248.597 105.138 249.125C104.841 249.654 104.45 250.105 103.99 250.448C102.091 251.99 99.2211 251.653 97.1217 250.93C95.0222 250.208 91.5091 246.715 90.6018 245.788C90.0426 246.27 89.5468 246.763 88.9454 247.257C86.2974 249.569 83.6704 251.869 81.0857 254.23C80.1889 255.049 79.3344 255.904 78.4693 256.759L79.7564 255.94C82.4677 254.615 88.3968 253.856 90.5701 256.698C90.9201 257.183 91.1769 257.746 91.3239 258.352C91.4708 258.957 91.5046 259.591 91.423 260.212C91.3414 260.833 91.1463 261.428 90.8503 261.957C90.5544 262.487 90.1641 262.939 89.705 263.286C87.806 264.827 84.9364 264.49 82.837 263.755C80.7375 263.021 77.562 259.878 76.507 258.782C75.6524 259.685 74.7873 260.588 73.9961 261.503C73.458 262.142 72.9411 262.708 72.4136 263.394L70.8944 265.345C69.9766 266.633 69.0165 267.946 68.1409 269.223C67.529 270.102 66.9593 270.957 66.3896 271.824C67.2652 270.981 69.0376 269.415 69.1959 269.271C71.6962 267.488 77.467 265.658 79.9885 268.163C80.3971 268.582 80.7239 269.094 80.9476 269.667C81.1714 270.24 81.287 270.859 81.287 271.486C81.287 272.113 81.1714 272.733 80.9476 273.306C80.7239 273.879 80.3971 274.391 79.9885 274.81C78.3005 276.665 75.4309 276.857 73.2576 276.472C70.8522 276.039 66.5056 272.859 65.9676 272.402C65.0181 273.835 64.1108 275.22 63.2668 276.556C60.3444 281.169 58.0656 285.143 56.5042 287.936L56.346 288.225L54.3204 287.105L54.6369 286.552C56.2721 283.758 58.6564 279.808 61.6948 275.232C62.6549 273.775 63.6993 272.245 64.786 270.692C63.6559 269.282 62.5991 267.798 61.621 266.248C59.2894 267.296 54.4575 267.332 53.8245 267.332C53.7296 269.114 53.6452 270.86 53.5819 272.498C53.3709 278.182 53.392 282.927 53.4447 286.25V286.636L51.2187 285.432C51.2187 282.132 51.3347 277.676 51.6301 272.402C51.7251 270.595 51.8622 268.657 52.0205 266.67C51.398 266.489 46.3657 265.02 44.4667 263.286C42.747 261.708 40.9325 259.167 40.9958 256.494C40.9915 255.867 41.103 255.245 41.323 254.671C41.543 254.096 41.8665 253.58 42.2726 253.158C42.6786 252.735 43.158 252.415 43.6797 252.218C44.2013 252.021 44.7534 251.951 45.3001 252.014C48.5812 252.496 51.3347 258.541 51.8728 261.853C51.8728 262.057 52.0416 264.261 52.1049 265.586C52.1787 264.779 52.2315 263.984 52.3159 263.177C52.453 261.527 52.6429 259.89 52.8434 258.119C52.9594 257.264 53.086 256.409 53.2021 255.542C53.3181 254.675 53.5186 253.784 53.6768 252.893C54.0777 250.846 54.563 248.787 55.1011 246.727C53.8351 246.583 49.3513 245.981 47.4312 244.716C45.5111 243.452 43.38 241.26 43.0952 238.611C43.007 237.991 43.0342 237.357 43.175 236.75C43.3159 236.143 43.5672 235.577 43.9126 235.088C44.258 234.6 44.6898 234.2 45.1797 233.915C45.6696 233.629 46.2068 233.465 46.756 233.432C50.0582 233.348 53.5819 238.84 54.5525 242.031C54.6158 242.223 55.0905 244.596 55.3332 245.908C55.6602 244.704 55.9767 243.44 56.3882 242.199C57.4432 238.587 58.6353 235.058 59.7958 231.482C60.1545 230.386 60.4921 229.29 60.8508 228.194C60.3972 228.194 55.0483 227.556 52.8961 226.147C50.9866 224.943 48.8555 222.691 48.5601 220.041C48.4736 219.422 48.502 218.789 48.6435 218.183C48.785 217.576 49.0365 217.011 49.3816 216.523C49.7267 216.035 50.1577 215.635 50.6469 215.349C51.136 215.063 51.6722 214.897 52.2209 214.863C55.5336 214.779 59.0573 220.27 60.0279 223.461C60.1018 223.702 60.777 227.074 60.9141 227.989C61.6737 225.581 62.4228 223.172 63.0241 220.764C63.9163 217.512 64.6212 214.198 65.1341 210.841C64.9231 210.841 59.3422 210.239 57.1372 208.794C55.2171 207.589 53.086 205.338 52.8012 202.688C52.7129 202.069 52.7401 201.436 52.881 200.83C53.022 200.223 53.2734 199.658 53.619 199.17C53.9646 198.683 54.3964 198.284 54.8864 198C55.3763 197.716 55.9132 197.553 56.462 197.522C59.7642 197.426 63.2879 202.917 64.2585 206.108C64.3218 206.313 64.8493 208.914 65.0708 210.167H65.2502C65.6859 206.775 65.8554 203.345 65.7566 199.918C65.7566 198.028 65.5983 196.233 65.4401 194.487C64.3851 194.487 59.5954 194.487 57.4854 193.44C55.3754 192.392 53.1282 190.513 52.5796 187.924C52.4333 187.318 52.4008 186.683 52.4843 186.061C52.5678 185.439 52.7654 184.844 53.0642 184.316C53.363 183.787 53.7562 183.337 54.2181 182.993C54.68 182.65 55.2002 182.422 55.7446 182.325C59.0257 181.807 63.0558 186.84 64.3323 189.875C64.3956 190.044 64.9442 191.814 65.3135 193.115C65.2396 192.32 65.1658 191.501 65.0708 190.706C64.7438 187.876 64.2796 185.311 63.8576 183.035C63.6044 181.746 63.3617 180.627 63.1191 179.507C62.0641 178.904 57.9285 176.424 56.5148 174.425C55.1011 172.426 53.8351 169.523 54.4048 166.946C54.5309 166.338 54.7675 165.766 55.0993 165.269C55.4311 164.771 55.8507 164.358 56.3311 164.058C56.8114 163.757 57.3417 163.574 57.8876 163.522C58.4336 163.47 58.983 163.55 59.5004 163.755Z" fill="#0051BA"/>
<path d="M119.299 221.908C116.714 221.788 111.545 218.765 111.545 218.765C111.545 218.765 114.32 215.478 114.52 215.297C116.83 213.201 122.38 210.685 125.133 212.78C125.583 213.14 125.962 213.604 126.244 214.143C126.526 214.681 126.705 215.282 126.77 215.904C126.835 216.527 126.783 217.159 126.62 217.758C126.456 218.357 126.183 218.909 125.819 219.379C124.342 221.439 121.504 222.017 119.299 221.908Z" fill="#0051BA"/>
<g opacity="0.5">
<path d="M65.9039 193.958C65.8406 193.958 66.6424 189.466 66.7163 189.141C67.6236 185.925 71.0418 180.338 74.3439 180.35C74.894 180.367 75.4346 180.517 75.9305 180.79C76.4264 181.062 76.8664 181.451 77.2218 181.93C77.5772 182.41 77.84 182.969 77.9931 183.573C78.1462 184.176 78.1861 184.809 78.1103 185.432C77.8676 188.081 75.7787 190.345 73.8903 191.645C71.6748 193.223 65.9039 193.958 65.9039 193.958Z" fill="white"/>
<path d="M59.5004 163.755C62.6654 165.032 64.1635 171.607 64.058 174.979C64.058 175.268 63.4672 179.796 63.4145 179.796H63.3512C63.5938 180.831 63.8576 181.951 64.1213 183.18C64.5855 185.444 65.0919 187.996 65.4823 190.838C65.9349 193.883 66.2308 196.955 66.3685 200.039C66.5367 203.495 66.4343 206.96 66.0625 210.395C66.0576 210.435 66.0576 210.476 66.0625 210.516C66.474 209.516 67.6978 206.747 67.8033 206.554C69.428 203.736 74.0067 199.328 77.2033 200.376C77.7282 200.559 78.2134 200.866 78.6273 201.277C79.0412 201.688 79.3745 202.194 79.6055 202.763C79.8364 203.331 79.9598 203.948 79.9677 204.574C79.9755 205.201 79.8676 205.822 79.6509 206.397C78.8069 208.878 76.2749 210.431 74.1544 211.118C71.7595 211.901 66.4212 210.985 65.9992 210.901C65.548 214.387 64.8925 217.835 64.0369 221.221C63.5446 223.196 63.0101 225.167 62.4333 227.134C62.8026 226.279 63.1507 225.521 63.2035 225.424C64.8282 222.594 69.4174 218.199 72.6035 219.247C73.1284 219.429 73.6136 219.736 74.0275 220.147C74.4414 220.559 74.7747 221.065 75.0057 221.633C75.2366 222.201 75.36 222.819 75.3679 223.445C75.3757 224.071 75.2678 224.692 75.0511 225.268C74.2071 227.748 71.6751 229.302 69.5546 229.988C67.434 230.675 62.8342 229.988 61.6315 229.808L60.9669 232.072C59.9119 235.684 58.7619 239.297 57.8019 242.838C57.4537 244.042 57.1478 245.342 56.8418 246.595C57.1794 245.836 57.4643 245.198 57.517 245.102C59.1312 242.284 63.7204 237.876 66.9065 238.924C67.4304 239.108 67.9146 239.416 68.3278 239.828C68.7411 240.239 69.0742 240.745 69.3058 241.312C69.5374 241.879 69.6623 242.496 69.6724 243.121C69.6826 243.747 69.5777 244.368 69.3647 244.945C68.5207 247.438 65.9781 248.979 63.8576 249.678C61.737 250.376 57.5909 249.762 56.1561 249.533C55.8712 250.822 55.5969 252.11 55.3754 253.375C55.2382 254.254 55.0589 255.073 54.9639 255.952L54.6474 258.541C54.4997 260.191 54.3309 261.889 54.2254 263.502C54.141 264.622 54.0777 265.694 54.0144 266.778C54.352 265.574 55.0694 263.081 55.0694 262.888C56.2378 260.239 57.9812 257.975 60.1334 256.313C60.2481 256.006 60.3933 255.715 60.566 255.446C60.8646 254.92 61.2572 254.472 61.7181 254.13C62.1789 253.789 62.6976 253.563 63.2403 253.467C63.783 253.37 64.3374 253.405 64.8674 253.57C65.3973 253.735 65.8909 254.025 66.3157 254.422C68.8266 256.891 68.1936 263.659 67.0437 266.766C66.9804 266.946 66.0414 268.837 65.4401 270.029C65.8937 269.391 66.3157 268.765 66.7905 268.127C67.7083 266.838 68.6578 265.586 69.6706 264.237L71.2214 262.322C71.7278 261.672 72.3398 261.118 72.8989 260.407C74.2176 258.95 75.6208 257.541 77.0661 256.156C76.085 255.241 72.6246 251.918 71.6329 249.654C70.6412 247.39 69.9344 244.222 70.9683 241.826C71.1956 241.255 71.5257 240.744 71.937 240.327C72.3484 239.911 72.8318 239.598 73.356 239.408C73.8802 239.218 74.4335 239.157 74.98 239.227C75.5264 239.297 76.0539 239.497 76.5281 239.815C79.3238 241.826 79.6087 248.63 78.8807 251.857C78.8807 252.062 78.0789 254.338 77.6464 255.578C78.522 254.76 79.3871 253.941 80.2944 253.17C82.9108 250.87 85.6222 248.618 88.3124 246.366L90.7706 244.295C90.4224 243.97 86.2446 240.116 85.1263 237.575C84.1452 235.323 83.4278 232.144 84.4617 229.76C84.6878 229.187 85.0172 228.675 85.4283 228.257C85.8395 227.84 86.3232 227.526 86.8479 227.336C87.3726 227.146 87.9264 227.085 88.4733 227.156C89.0201 227.227 89.5477 227.429 90.0215 227.748C92.8278 229.748 93.1021 236.551 92.3742 239.791C92.3214 240.032 91.2348 243.307 90.9288 244.126C92.7223 242.597 94.5053 241.055 96.2038 239.442C98.5149 237.291 100.7 234.97 102.745 232.493C102.587 232.337 98.2083 228.339 97.0689 225.749C96.0772 223.498 95.3704 220.306 96.4043 217.922C96.6305 217.351 96.9595 216.84 97.3699 216.424C97.7803 216.007 98.2628 215.694 98.7862 215.504C99.3096 215.315 99.8621 215.253 100.408 215.323C100.953 215.393 101.48 215.593 101.954 215.911C104.76 217.922 105.045 224.726 104.317 227.953C104.317 228.17 103.441 230.663 103.03 231.843L103.188 231.963C105.187 229.403 106.983 226.647 108.558 223.726C109.444 222.125 110.204 220.547 110.921 218.994C110.035 218.343 106.036 215.321 104.781 213.117C103.526 210.913 102.576 207.927 103.367 205.422C103.537 204.825 103.815 204.275 104.183 203.809C104.551 203.343 105.001 202.97 105.504 202.715C106.006 202.461 106.55 202.33 107.1 202.332C107.65 202.333 108.193 202.467 108.695 202.724C111.681 204.374 112.609 211.154 112.198 214.442C112.198 214.622 111.776 216.441 111.47 217.753C111.776 217.043 112.113 216.32 112.398 215.634C113.453 213.069 114.35 210.636 115.088 208.408C115.51 207.204 115.858 206.06 116.143 205C115.563 203.796 113.305 199.172 113.084 196.571C112.862 193.97 113.221 190.814 114.941 189.008C115.332 188.568 115.8 188.227 116.315 188.008C116.829 187.788 117.379 187.694 117.927 187.733C118.475 187.772 119.01 187.942 119.497 188.232C119.984 188.522 120.412 188.926 120.754 189.417C122.737 192.44 120.849 198.907 119.139 201.653C118.992 201.893 116.302 205.265 116.27 205.265V205.193C115.974 206.217 115.658 207.313 115.278 208.493C114.582 210.684 113.77 213.141 112.725 215.718C111.621 218.538 110.378 221.284 109.001 223.943C107.465 226.926 105.699 229.747 103.726 232.373L103.652 232.469C104.475 231.891 106.817 230.35 107.018 230.253C109.739 228.929 115.669 228.182 117.842 231.024C118.192 231.508 118.448 232.07 118.595 232.674C118.742 233.279 118.776 233.912 118.694 234.532C118.612 235.152 118.417 235.746 118.121 236.274C117.826 236.803 117.436 237.254 116.977 237.599C115.067 239.141 112.208 238.803 110.098 238.081C107.724 237.214 103.768 233.095 103.409 232.758C101.349 235.382 99.1353 237.844 96.7841 240.128C95.4231 241.465 94.0094 242.765 92.5641 244.054C93.292 243.572 93.9461 243.151 94.0411 243.103C96.7524 241.778 102.681 241.031 104.855 243.873C105.206 244.356 105.464 244.918 105.612 245.523C105.76 246.128 105.794 246.761 105.712 247.382C105.631 248.003 105.435 248.597 105.138 249.125C104.841 249.654 104.45 250.105 103.99 250.448C102.091 251.99 99.2211 251.653 97.1217 250.93C95.0222 250.208 91.5091 246.715 90.6018 245.788C90.0426 246.27 89.5468 246.763 88.9454 247.257C86.2974 249.569 83.6704 251.869 81.0857 254.23C80.1889 255.049 79.3344 255.904 78.4693 256.759L79.7564 255.94C82.4677 254.615 88.3968 253.856 90.5701 256.698C90.9201 257.183 91.1769 257.746 91.3239 258.352C91.4708 258.957 91.5046 259.591 91.423 260.212C91.3414 260.833 91.1463 261.428 90.8503 261.957C90.5544 262.487 90.1641 262.939 89.705 263.286C87.806 264.827 84.9364 264.49 82.837 263.755C80.7375 263.021 77.562 259.878 76.507 258.782C75.6524 259.685 74.7873 260.588 73.9961 261.503C73.458 262.142 72.9411 262.708 72.4136 263.394L70.8944 265.345C69.9766 266.633 69.0165 267.946 68.1409 269.223C67.529 270.102 66.9593 270.957 66.3896 271.824C67.2652 270.981 69.0376 269.415 69.1959 269.271C71.6962 267.488 77.467 265.658 79.9885 268.163C80.3971 268.582 80.7239 269.094 80.9476 269.667C81.1714 270.24 81.287 270.859 81.287 271.486C81.287 272.113 81.1714 272.733 80.9476 273.306C80.7239 273.879 80.3971 274.391 79.9885 274.81C78.3005 276.665 75.4309 276.857 73.2576 276.472C70.8522 276.039 66.5056 272.859 65.9676 272.402C65.0181 273.835 64.1108 275.22 63.2668 276.556C60.3444 281.169 58.0656 285.143 56.5042 287.936L56.346 288.225L54.3204 287.105L54.6369 286.552C56.2721 283.758 58.6564 279.808 61.6948 275.232C62.6549 273.775 63.6993 272.245 64.786 270.692C63.6559 269.282 62.5991 267.798 61.621 266.248C59.2894 267.296 54.4575 267.332 53.8245 267.332C53.7296 269.114 53.6452 270.86 53.5819 272.498C53.3709 278.182 53.392 282.927 53.4447 286.25V286.636L51.2187 285.432C51.2187 282.132 51.3347 277.676 51.6301 272.402C51.7251 270.595 51.8622 268.657 52.0205 266.67C51.398 266.489 46.3657 265.02 44.4667 263.286C42.747 261.708 40.9325 259.167 40.9958 256.494C40.9915 255.867 41.103 255.245 41.323 254.671C41.543 254.096 41.8665 253.58 42.2726 253.158C42.6786 252.735 43.158 252.415 43.6797 252.218C44.2013 252.021 44.7534 251.951 45.3001 252.014C48.5812 252.496 51.3347 258.541 51.8728 261.853C51.8728 262.057 52.0416 264.261 52.1049 265.586C52.1787 264.779 52.2315 263.984 52.3159 263.177C52.453 261.527 52.6429 259.89 52.8434 258.119C52.9594 257.264 53.086 256.409 53.2021 255.542C53.3181 254.675 53.5186 253.784 53.6768 252.893C54.0777 250.846 54.563 248.787 55.1011 246.727C53.8351 246.583 49.3513 245.981 47.4312 244.716C45.5111 243.452 43.38 241.26 43.0952 238.611C43.007 237.991 43.0342 237.357 43.175 236.75C43.3159 236.143 43.5672 235.577 43.9126 235.088C44.258 234.6 44.6898 234.2 45.1797 233.915C45.6696 233.629 46.2068 233.465 46.756 233.432C50.0582 233.348 53.5819 238.84 54.5525 242.031C54.6158 242.223 55.0905 244.596 55.3332 245.908C55.6602 244.704 55.9767 243.44 56.3882 242.199C57.4432 238.587 58.6353 235.058 59.7958 231.482C60.1545 230.386 60.4921 229.29 60.8508 228.194C60.3972 228.194 55.0483 227.556 52.8961 226.147C50.9866 224.943 48.8555 222.691 48.5601 220.041C48.4736 219.422 48.502 218.789 48.6435 218.183C48.785 217.576 49.0365 217.011 49.3816 216.523C49.7267 216.035 50.1577 215.635 50.6469 215.349C51.136 215.063 51.6722 214.897 52.2209 214.863C55.5336 214.779 59.0573 220.27 60.0279 223.461C60.1018 223.702 60.777 227.074 60.9141 227.989C61.6737 225.581 62.4228 223.172 63.0241 220.764C63.9163 217.512 64.6212 214.198 65.1341 210.841C64.9231 210.841 59.3422 210.239 57.1372 208.794C55.2171 207.589 53.086 205.338 52.8012 202.688C52.7129 202.069 52.7401 201.436 52.881 200.83C53.022 200.223 53.2734 199.658 53.619 199.17C53.9646 198.683 54.3964 198.284 54.8864 198C55.3763 197.716 55.9132 197.553 56.462 197.522C59.7642 197.426 63.2879 202.917 64.2585 206.108C64.3218 206.313 64.8493 208.914 65.0708 210.167H65.2502C65.6859 206.775 65.8554 203.345 65.7566 199.918C65.7566 198.028 65.5983 196.233 65.4401 194.487C64.3851 194.487 59.5954 194.487 57.4854 193.44C55.3754 192.392 53.1282 190.513 52.5796 187.924C52.4333 187.318 52.4008 186.683 52.4843 186.061C52.5678 185.439 52.7654 184.844 53.0642 184.316C53.363 183.787 53.7562 183.337 54.2181 182.993C54.68 182.65 55.2002 182.422 55.7446 182.325C59.0257 181.807 63.0558 186.84 64.3323 189.875C64.3956 190.044 64.9442 191.814 65.3135 193.115C65.2396 192.32 65.1658 191.501 65.0708 190.706C64.7438 187.876 64.2796 185.311 63.8576 183.035C63.6044 181.746 63.3617 180.627 63.1191 179.507C62.0641 178.904 57.9285 176.424 56.5148 174.425C55.1011 172.426 53.8351 169.523 54.4048 166.946C54.5309 166.338 54.7675 165.766 55.0993 165.269C55.4311 164.771 55.8507 164.358 56.3311 164.058C56.8114 163.757 57.3417 163.574 57.8876 163.522C58.4336 163.47 58.983 163.55 59.5004 163.755Z" fill="white"/>
<path d="M119.297 221.908C116.712 221.788 111.543 218.765 111.543 218.765C111.543 218.765 114.318 215.478 114.518 215.297C116.829 213.201 122.378 210.685 125.131 212.78C125.581 213.14 125.96 213.604 126.242 214.143C126.524 214.681 126.703 215.282 126.768 215.904C126.833 216.527 126.781 217.159 126.618 217.758C126.454 218.357 126.181 218.909 125.817 219.379C124.34 221.439 121.502 222.017 119.297 221.908Z" fill="white"/>
</g>
<path d="M89.1154 295.8C89.1154 295.8 73.4276 252.64 64.65 254.519C55.8724 256.397 79.7048 323.329 79.7048 323.329C79.7048 323.329 52.1061 263.9 33.2849 263.9C14.4637 263.9 40.1846 329.579 64.0803 351.472C64.0803 351.472 26.438 305.181 4.48344 315.188C-17.4711 325.195 48.3397 372.089 48.3397 372.089C48.3397 372.089 10.0749 358.348 14.4954 368.994C18.9158 379.639 30.8056 381.494 30.8056 381.494L40.8703 383.999H95.7302L104.17 380.253C104.17 380.253 139.302 360.227 129.891 352.098C120.481 343.97 99.7814 361.479 99.7814 361.479C99.7814 361.479 135.535 316.441 128.636 299.557C121.736 282.674 90.9933 330.205 90.9933 330.205C90.9933 330.205 116.092 269.523 111.038 258.89C105.985 248.257 89.1154 295.8 89.1154 295.8Z" fill="#0051BA"/>
<path opacity="0.4" d="M89.1154 295.8C89.1154 295.8 73.4276 252.64 64.65 254.519C55.8724 256.397 79.7048 323.329 79.7048 323.329C79.7048 323.329 52.1061 263.9 33.2849 263.9C14.4637 263.9 40.1846 329.579 64.0803 351.472C64.0803 351.472 26.438 305.181 4.48344 315.188C-17.4711 325.195 48.3397 372.089 48.3397 372.089C48.3397 372.089 10.0749 358.348 14.4954 368.994C18.9158 379.639 30.8056 381.494 30.8056 381.494L47.2003 383.999H91.5102L104.17 380.253C104.17 380.253 139.302 360.227 129.891 352.098C120.481 343.97 99.7814 361.479 99.7814 361.479C99.7814 361.479 135.535 316.441 128.636 299.557C121.736 282.674 90.9933 330.205 90.9933 330.205C90.9933 330.205 116.092 269.523 111.038 258.89C105.985 248.257 89.1154 295.8 89.1154 295.8Z" fill="white"/>
<path d="M94.1373 298.076C80.3379 344.62 80.3379 377.556 80.3379 377.556C80.3379 377.556 96.6482 378.279 113.581 363.948" stroke="#263238" stroke-linecap="round" stroke-linejoin="round"/>
<path d="M87.2893 323.137C84.4419 309.223 80.6645 295.58 75.9902 282.325" stroke="#263238" stroke-linecap="round" stroke-linejoin="round"/>
<path d="M46.4609 295.921L81.5818 355.362C81.5818 355.362 105.425 332.482 113.58 319.56" stroke="#263238" stroke-linecap="round" stroke-linejoin="round"/>
<path d="M80.9587 369.681C80.9587 369.681 43.9494 349.63 28.8945 338.178" stroke="#263238" stroke-linecap="round" stroke-linejoin="round"/>
<path d="M26.4297 385.262L375 385.943" stroke="#263238" stroke-linecap="round" stroke-linejoin="round"/>
<path d="M177.053 420.053C219.144 420.053 253.266 415.319 253.266 409.479C253.266 403.64 219.144 398.906 177.053 398.906C134.962 398.906 100.84 403.64 100.84 409.479C100.84 415.319 134.962 420.053 177.053 420.053Z" fill="#0051BA"/>
<path opacity="0.5" d="M177.053 420.053C219.144 420.053 253.266 415.319 253.266 409.479C253.266 403.64 219.144 398.906 177.053 398.906C134.962 398.906 100.84 403.64 100.84 409.479C100.84 415.319 134.962 420.053 177.053 420.053Z" fill="white"/>
<path d="M334.765 409.443C334.765 412.357 317.747 414.718 296.785 414.718C275.822 414.718 258.805 412.309 258.805 409.443C258.805 406.577 275.811 404.181 296.785 404.181C317.758 404.181 334.765 406.577 334.765 409.443Z" fill="#0051BA"/>
<path opacity="0.5" d="M334.765 409.443C334.765 412.357 317.747 414.718 296.785 414.718C275.822 414.718 258.805 412.309 258.805 409.443C258.805 406.577 275.811 404.181 296.785 404.181C317.758 404.181 334.765 406.577 334.765 409.443Z" fill="white"/>
<path d="M192.255 61.1648C192.255 61.1648 186.357 55.8782 179.595 58.5155C172.832 61.1528 167.705 74.0141 165.88 84.4669C164.054 94.9197 157.039 102.844 158.727 115.103C160.415 127.362 172.621 129.277 187.359 131.083C202.098 132.889 210.095 130.842 217.037 119.787C223.978 108.732 221.035 95.281 216.931 83.3831C212.827 71.4852 205.991 60.4423 200.304 58.3951C194.618 56.3479 192.255 61.1648 192.255 61.1648Z" fill="#263238" stroke="#263238" stroke-linecap="round" stroke-linejoin="round"/>
<path d="M167.887 124.038C168.882 124.549 169.917 124.952 170.978 125.242" stroke="white" stroke-linecap="round" stroke-linejoin="round"/>
<path d="M190.779 69.7275C188.375 75.8576 185.329 81.632 181.706 86.9241C175.671 95.7753 162.326 104.133 161.471 113.417C161.334 114.66 161.429 115.923 161.751 117.12C162.073 118.318 162.614 119.425 163.338 120.366" stroke="white" stroke-linecap="round" stroke-linejoin="round"/>
<path d="M215.265 114.127C214.828 115.293 214.269 116.393 213.598 117.402" stroke="white" stroke-linecap="round" stroke-linejoin="round"/>
<path d="M210.189 90.8613C210.189 90.8613 216.973 99.7968 216.319 109.334" stroke="white" stroke-linecap="round" stroke-linejoin="round"/>
<path d="M189.491 64.8017C186.848 64.4945 184.178 64.9148 181.705 66.0273C179.233 67.1399 177.03 68.9123 175.281 71.1962C175.038 71.5093 174.816 71.8224 174.605 72.1355" stroke="white" stroke-linecap="round" stroke-linejoin="round"/>
<path d="M150.572 291.79L149.254 314.959C149.254 314.959 143.641 346.041 141.869 358.854C140.096 371.667 136.847 391.151 136.256 391.151C135.665 391.151 125.98 397.835 122.879 403.29C119.777 408.745 123.712 411.058 128.016 409.311C132.321 407.565 138.166 402.628 140.075 396.763C141.985 390.899 142.934 388.719 143.061 387.767C143.187 386.816 163.602 324.256 165.627 317.572C167.653 310.889 171.957 291.26 171.957 291.26L181.99 252.411C181.99 252.411 192.73 292.356 192.857 294.126C192.983 295.896 203.955 397.991 204.462 401.809C204.968 405.626 204.82 408.348 206.846 409.167C208.872 409.986 213.651 409.986 216.162 409.986C218.672 409.986 227.387 411.491 231.681 410.263C235.974 409.034 236.46 408.215 233.474 405.759C230.488 403.302 213.904 401.737 212.374 394.583C212.248 394.042 212.131 288.948 212.131 288.948C212.131 288.948 210.697 254.193 208.312 244.391H153.136L150.572 291.79Z" fill="white" stroke="#263238" stroke-linecap="round" stroke-linejoin="round"/>
<path d="M128.008 409.287C132.302 407.505 138.157 402.603 140.067 396.739L140.468 395.534C138.031 398.497 134.138 402.615 134.138 402.615C133.899 401.218 133.367 399.908 132.587 398.798C132.247 398.369 131.811 398.054 131.326 397.887C130.841 397.719 130.325 397.705 129.833 397.847L134.053 392.548C130.888 394.788 125.191 399.364 122.955 403.302C119.758 408.733 123.683 411.057 128.008 409.287Z" fill="#263238" stroke="#263238" stroke-linecap="round" stroke-linejoin="round"/>
<path d="M233.399 405.734C231.352 404.06 222.944 402.795 217.331 399.869C217.1 400.094 216.919 400.379 216.804 400.7C216.447 401.854 216.169 403.038 215.97 404.241L204.365 401.411V401.784C204.84 405.601 204.724 408.323 206.75 409.142C208.775 409.961 213.554 409.961 216.065 409.961C218.576 409.961 227.29 411.466 231.584 410.238C235.878 409.009 236.427 408.239 233.399 405.734Z" fill="#263238" stroke="#263238" stroke-linecap="round" stroke-linejoin="round"/>
<path d="M166.651 187.863C166.651 187.863 161.175 190.741 154.55 204.325C147.302 219.149 148.547 227.386 148.442 245.269C148.336 263.152 148.02 292.837 148.02 292.837C148.02 292.837 168.064 298.966 182.444 298.003C196.824 297.04 215.065 293.319 215.065 293.319C215.065 293.319 211.172 232.769 207.49 215.356C203.808 197.943 201.592 190.067 201.592 190.067C194.476 191.194 187.265 191.316 180.123 190.428C167.917 189.068 166.651 187.863 166.651 187.863Z" fill="#263238" stroke="#263238" stroke-linecap="round" stroke-linejoin="round"/>
<path d="M189.713 241.416C190.261 243.475 190.768 245.559 191.211 247.642" stroke="white" stroke-linecap="round" stroke-linejoin="round"/>
<path d="M177 207.336C181.25 216.287 184.897 225.595 187.909 235.178" stroke="white" stroke-linecap="round" stroke-linejoin="round"/>
<path d="M301.046 176.35C300.413 175.869 290.042 174.014 290.042 174.014L288.017 173.063C288.017 173.063 300.571 174.207 300.677 173.605C300.782 173.002 301.204 172.28 300.36 172.16C299.516 172.039 283.364 168.294 283.364 168.294C283.364 168.294 287.468 163.862 287.996 162.899C288.523 161.936 289.251 160.009 288.407 160.009C287.563 160.009 287.352 160.611 286.202 161.454C285.052 162.297 280.516 164.344 279.25 165.536C277.984 166.728 274.207 169.859 274.207 169.859L230.34 162.971C230.34 162.971 214.937 141.295 211.593 136.671C209.268 133.585 206.621 130.835 203.712 128.482C200.484 126.856 200.547 129.578 200.547 129.578L207.288 163.778C207.288 163.778 224.728 175.64 225.804 175.64C226.88 175.64 273.996 177.422 273.996 177.422C273.996 177.422 277.161 179.108 279.144 180.541C281.128 181.974 293.777 186.562 293.777 186.562C293.777 186.562 294.621 186.081 293.672 185.238C292.722 184.395 286.624 181.035 286.624 181.035L299.284 184.166C299.284 184.166 300.023 183.564 299.706 182.962C299.39 182.359 288.101 177.434 288.101 177.434L300.761 178.157C300.761 178.157 301.669 176.832 301.046 176.35Z" fill="white" stroke="#263238" stroke-linecap="round" stroke-linejoin="round"/>
<path d="M227.692 159.25C223.145 152.856 214.061 140.091 211.593 136.671C209.268 133.585 206.621 130.835 203.712 128.482C200.484 126.856 200.547 129.578 200.547 129.578L207.288 163.778C207.288 163.778 215.159 169.125 220.645 172.641L227.692 159.25Z" fill="white" stroke="#263238" stroke-linecap="round" stroke-linejoin="round"/>
<path d="M181.072 125.556C181.072 125.556 171.915 126.038 166.302 133.131C160.689 140.223 161.354 155.83 163.675 165.199C165.996 174.568 168.95 179.735 168.307 182.986C167.663 186.238 165.363 187.309 166.619 190.308C167.874 193.306 175.143 196.558 187.982 196.076C200.822 195.594 203.248 192.463 203.354 189.718C203.459 186.972 202.51 184.672 202.826 182.986C203.143 181.3 212.405 171.931 212.405 161.599C212.405 151.266 208.407 147.666 207.458 140.211C206.508 132.757 206.825 131.685 202.932 128.434C199.039 125.183 186.231 123.509 181.072 125.556Z" fill="white" stroke="#263238" stroke-linecap="round" stroke-linejoin="round"/>
<path d="M176.917 161.369C173.856 164.293 170.459 166.724 166.82 168.595" stroke="#263238" stroke-linecap="round" stroke-linejoin="round"/>
<path d="M177.928 162.574C177.928 162.574 175.659 170.932 170.1 175.544" stroke="#263238" stroke-linecap="round" stroke-linejoin="round"/>
<path d="M200.653 133.118L201.708 144.655L197.277 138.766L200.653 133.118Z" fill="white" stroke="#263238" stroke-linecap="round" stroke-linejoin="round"/>
<path d="M194.756 145.618L200.653 133.118L195.283 126.519L194.756 145.618Z" fill="white" stroke="#263238" stroke-linecap="round" stroke-linejoin="round"/>
<path d="M183.395 105.132C184.314 109.297 184.771 113.577 184.755 117.873C184.725 120.654 184.478 123.427 184.017 126.158L194.757 145.618L197.806 127.555L199.81 115.055C199.81 115.055 187.604 114.26 183.395 105.132Z" fill="white" stroke="#263238" stroke-linecap="round" stroke-linejoin="round"/>
<path d="M194.121 135.165L194.754 145.618L191.6 139.97L194.121 135.165Z" fill="white" stroke="#263238" stroke-linecap="round" stroke-linejoin="round"/>
<path d="M180.439 125.676L190.23 145.739L194.123 135.166L183.71 118.824L180.439 125.676Z" fill="white" stroke="#263238" stroke-linecap="round" stroke-linejoin="round"/>
<path d="M351.961 135.033H263.119V218.246H351.961V135.033Z" fill="#0051BA"/>
<mask id="mask0_3950_13788" style="mask-type:luminance" maskUnits="userSpaceOnUse" x="263" y="135" width="89" height="84">
<path d="M351.959 135.033H263.117V218.246H351.959V135.033Z" fill="white"/>
</mask>
<g mask="url(#mask0_3950_13788)">
<path opacity="0.2" d="M351.959 135.033H263.117V218.246H351.959V135.033Z" fill="#13116D"/>
</g>
<path d="M351.961 135.033H263.119V218.246H351.961V135.033Z" stroke="#263238" stroke-linecap="round" stroke-linejoin="round"/>
<path d="M333.152 135.033H244.311V218.246H333.152V135.033Z" fill="#0051BA" stroke="#263238" stroke-linecap="round" stroke-linejoin="round"/>
<path d="M366.595 246.257C363.747 241.103 351.962 218.246 351.962 218.246H333.162L342.836 246.257H366.595Z" fill="#0051BA"/>
<mask id="mask1_3950_13788" style="mask-type:luminance" maskUnits="userSpaceOnUse" x="333" y="218" width="34" height="29">
<path d="M366.595 246.258C363.747 241.104 351.962 218.247 351.962 218.247H333.162L342.836 246.258H366.595Z" fill="white"/>
</mask>
<g mask="url(#mask1_3950_13788)">
<path opacity="0.2" d="M366.595 246.258C363.747 241.104 351.962 218.247 351.962 218.247H333.162L342.836 246.258H366.595Z" fill="#13116D"/>
</g>
<path d="M366.595 246.257C363.747 241.103 351.962 218.246 351.962 218.246H333.162L342.836 246.257H366.595Z" stroke="#263238" stroke-linecap="round" stroke-linejoin="round"/>
<path d="M229.623 246.257C232.472 241.103 244.245 218.246 244.245 218.246H263.056L253.382 246.257H229.623Z" fill="#0051BA" stroke="#263238" stroke-linecap="round" stroke-linejoin="round"/>
<path d="M244.247 218.246L236.07 246.257H328.857L333.162 218.246H244.247Z" fill="#0051BA" stroke="#263238" stroke-linecap="round" stroke-linejoin="round"/>
<path d="M363.396 165.139V193.005" stroke="#263238" stroke-linecap="round" stroke-linejoin="round"/>
<path d="M368.02 177.193V199.785" stroke="#263238" stroke-linecap="round" stroke-linejoin="round"/>
<path d="M234.764 193.005V210.322" stroke="#263238" stroke-linecap="round" stroke-linejoin="round"/>
<path d="M230.805 202.796V216.344" stroke="#263238" stroke-linecap="round" stroke-linejoin="round"/>
<path d="M165.807 155.469C168.955 159.539 172.609 163.061 176.652 165.922C182.982 170.245 206.192 185.262 208.017 186.105C209.842 186.948 265.272 176.616 265.272 176.616C265.272 176.616 268.437 178.301 270.431 179.735C272.425 181.168 285.064 185.756 285.064 185.756C285.064 185.756 285.908 185.274 284.958 184.443C284.009 183.612 277.911 180.228 277.911 180.228L290.571 183.359C290.571 183.359 291.309 182.757 290.993 182.155C290.676 181.553 279.388 176.628 279.388 176.628L292.048 177.35C292.048 177.35 292.997 176.025 292.364 175.544C291.731 175.062 278.765 171.69 278.765 171.69C278.765 171.69 292.554 170.366 292.66 169.763C292.765 169.161 293.187 168.451 292.343 168.33C291.499 168.21 274.239 166.283 274.239 166.283C274.239 166.283 278.765 163.044 279.293 162.08C279.82 161.117 280.559 159.19 279.715 159.19C278.871 159.19 278.66 159.792 277.51 160.635C276.36 161.478 271.823 163.525 270.557 164.718C269.291 165.91 265.504 169.053 265.504 169.053L214.78 169.173L183.288 140.813" fill="white"/>
<path d="M165.807 155.469C168.955 159.539 172.609 163.061 176.652 165.922C182.982 170.245 206.192 185.262 208.017 186.105C209.842 186.948 265.272 176.616 265.272 176.616C265.272 176.616 268.437 178.301 270.431 179.735C272.425 181.168 285.064 185.756 285.064 185.756C285.064 185.756 285.908 185.274 284.958 184.443C284.009 183.612 277.911 180.228 277.911 180.228L290.571 183.359C290.571 183.359 291.309 182.757 290.993 182.155C290.676 181.553 279.388 176.628 279.388 176.628L292.048 177.35C292.048 177.35 292.997 176.025 292.364 175.544C291.731 175.062 278.765 171.69 278.765 171.69C278.765 171.69 292.554 170.366 292.66 169.763C292.765 169.161 293.187 168.451 292.343 168.33C291.499 168.21 274.239 166.283 274.239 166.283C274.239 166.283 278.765 163.044 279.293 162.08C279.82 161.117 280.559 159.19 279.715 159.19C278.871 159.19 278.66 159.792 277.51 160.635C276.36 161.478 271.823 163.525 270.557 164.718C269.291 165.91 265.504 169.053 265.504 169.053L214.78 169.173L183.288 140.813" stroke="#263238" stroke-linecap="round" stroke-linejoin="round"/>
<path d="M292.324 168.331C291.49 168.21 274.22 166.283 274.22 166.283C274.22 166.283 278.746 163.044 279.273 162.081C279.801 161.117 280.539 159.19 279.695 159.19C278.851 159.19 278.64 159.793 277.49 160.636C276.34 161.478 271.804 163.526 270.538 164.718C269.272 165.91 265.484 169.053 265.484 169.053L214.76 169.174L209.137 164.08C207.027 168.307 203.081 176.23 200.518 181.457C204.463 183.962 207.449 185.828 208.05 186.105C209.844 186.948 265.305 176.616 265.305 176.616C265.305 176.616 268.47 178.302 270.464 179.735C272.458 181.168 285.097 185.756 285.097 185.756C285.097 185.756 285.941 185.274 284.991 184.443C284.042 183.612 277.944 180.229 277.944 180.229L290.604 183.36C290.604 183.36 291.342 182.757 291.026 182.155C290.709 181.553 279.421 176.628 279.421 176.628L292.081 177.35C292.081 177.35 293.03 176.026 292.397 175.544C291.764 175.062 278.767 171.69 278.767 171.69C278.767 171.69 292.556 170.366 292.661 169.764C292.767 169.162 293.168 168.451 292.324 168.331Z" fill="white" stroke="#263238" stroke-linecap="round" stroke-linejoin="round"/>
<path d="M207.385 95.0403C207.565 94.7912 207.802 94.6047 208.071 94.5022C208.339 94.3997 208.627 94.3853 208.902 94.4606C209.177 94.536 209.428 94.698 209.626 94.9283C209.824 95.1585 209.962 95.4477 210.023 95.7629C210.199 97.0692 210.14 98.4028 209.85 99.6824C209.56 100.962 209.044 102.16 208.335 103.205C207.174 104.53 206.119 104.891 206.119 103.205C206.412 100.459 206.835 97.7339 207.385 95.0403Z" fill="white" stroke="#263238" stroke-linecap="round" stroke-linejoin="round"/>
<path d="M194.429 73.9902C194.059 79.8508 191.862 85.3663 188.237 89.537C184.859 93.3286 181.039 96.5704 176.885 99.1709C176.885 99.1709 177.497 102.94 178.742 104.12C179.986 105.3 182.455 105.072 182.455 105.072C183.89 109.551 186.224 113.584 189.27 116.849C194.218 122.027 200 121.558 203.302 113.79C206.604 106.023 208.26 98.2316 207.849 93.7518L207.438 89.2721C207.438 89.2721 196.698 82.4681 194.429 73.9902Z" fill="white" stroke="#263238" stroke-linecap="round" stroke-linejoin="round"/>
<path d="M193.807 97.2803C194.331 97.2803 194.756 96.4177 194.756 95.3535C194.756 94.2894 194.331 93.4268 193.807 93.4268C193.283 93.4268 192.857 94.2894 192.857 95.3535C192.857 96.4177 193.283 97.2803 193.807 97.2803Z" fill="#263238"/>
<path d="M198.965 112.658C199.49 112.658 199.915 111.796 199.915 110.731C199.915 109.667 199.49 108.805 198.965 108.805C198.441 108.805 198.016 109.667 198.016 110.731C198.016 111.796 198.441 112.658 198.965 112.658Z" fill="#263238"/>
<path d="M202.963 97.2803C203.488 97.2803 203.913 96.4177 203.913 95.3535C203.913 94.2894 203.488 93.4268 202.963 93.4268C202.439 93.4268 202.014 94.2894 202.014 95.3535C202.014 96.4177 202.439 97.2803 202.963 97.2803Z" fill="#263238"/>
<path d="M201.065 93.3057C200.702 94.7483 200.595 96.2588 200.748 97.7493C201.065 99.7965 202.542 103.277 201.276 103.879C200.698 104.18 200.059 104.294 199.428 104.209C198.798 104.124 198.2 103.843 197.699 103.397" stroke="#263238" stroke-linecap="round" stroke-linejoin="round"/>
<path d="M191.064 91.8732C191.064 91.8732 191.571 88.1883 195.801 88.6098" stroke="#263238" stroke-linecap="round" stroke-linejoin="round"/>
<path d="M202.393 89.741C202.393 89.741 206.338 86.1283 207.615 92.7396" stroke="#263238" stroke-linecap="round" stroke-linejoin="round"/>
</svg>
