<svg width="27" height="27" viewBox="0 0 27 27" fill="none" xmlns="http://www.w3.org/2000/svg">
<g clip-path="url(#clip0_5147_88619)">
<path fill-rule="evenodd" clip-rule="evenodd" d="M0 0V27H27V0H0Z" fill="#2E42A5"/>
<mask id="mask0_5147_88619" style="mask-type:luminance" maskUnits="userSpaceOnUse" x="0" y="0" width="27" height="27">
<path fill-rule="evenodd" clip-rule="evenodd" d="M0 0V27H27V0H0Z" fill="white"/>
</mask>
<g mask="url(#mask0_5147_88619)">
<path d="M-3.00586 25.0706L2.93583 28.4219L27.1346 3.64269L30.2691 -1.33656L23.9157 -2.45593L14.0455 8.22144L6.10074 15.4169L-3.00586 25.0706Z" fill="white"/>
<path d="M-2.19336 27.4184L0.834859 29.3624L29.1435 -1.79895H24.8935L-2.19336 27.4184Z" fill="#F50100"/>
<path d="M30.0074 25.0706L24.0657 28.4219L-0.133047 3.64269L-3.26758 -1.33656L3.08586 -2.45593L12.956 8.22144L20.9008 15.4169L30.0074 25.0706Z" fill="white"/>
<path d="M29.8042 26.7558L26.7768 28.6998L14.723 15.3573L11.1489 13.8678L-3.57031 -1.3197H0.6805L15.3904 13.5078L19.2978 15.2943L29.8042 26.7558Z" fill="#F50100"/>
<path fill-rule="evenodd" clip-rule="evenodd" d="M16.6875 -2.25H10.3121V9H-1.66406V18H10.3121V29.25H16.6875V18H28.7109V9H16.6875V-2.25Z" fill="#F50100"/>
<mask id="mask1_5147_88619" style="mask-type:luminance" maskUnits="userSpaceOnUse" x="-2" y="-3" width="31" height="33">
<path fill-rule="evenodd" clip-rule="evenodd" d="M16.6875 -2.25H10.3121V9H-1.66406V18H10.3121V29.25H16.6875V18H28.7109V9H16.6875V-2.25Z" fill="white"/>
</mask>
<g mask="url(#mask1_5147_88619)">
<path d="M10.3121 -2.25V-4.5H8.62463V-2.25H10.3121ZM16.6875 -2.25H18.375V-4.5H16.6875V-2.25ZM10.3121 9V11.25H11.9996V9H10.3121ZM-1.66406 9V6.75H-3.35156V9H-1.66406ZM-1.66406 18H-3.35156V20.25H-1.66406V18ZM10.3121 18H11.9996V15.75H10.3121V18ZM10.3121 29.25H8.62463V31.5H10.3121V29.25ZM16.6875 29.25V31.5H18.375V29.25H16.6875ZM16.6875 18V15.75H15V18H16.6875ZM28.7109 18V20.25H30.3984V18H28.7109ZM28.7109 9H30.3984V6.75H28.7109V9ZM16.6875 9H15V11.25H16.6875V9ZM10.3121 0H16.6875V-4.5H10.3121V0ZM11.9996 9V-2.25H8.62463V9H11.9996ZM-1.66406 11.25H10.3121V6.75H-1.66406V11.25ZM0.0234375 18V9H-3.35156V18H0.0234375ZM10.3121 15.75H-1.66406V20.25H10.3121V15.75ZM11.9996 29.25V18H8.62463V29.25H11.9996ZM16.6875 27H10.3121V31.5H16.6875V27ZM15 18V29.25H18.375V18H15ZM28.7109 15.75H16.6875V20.25H28.7109V15.75ZM27.0234 9V18H30.3984V9H27.0234ZM16.6875 11.25H28.7109V6.75H16.6875V11.25ZM15 -2.25V9H18.375V-2.25H15Z" fill="white"/>
</g>
</g>
</g>
<defs>
<clipPath id="clip0_5147_88619">
<rect width="27" height="27" rx="13.5" fill="white"/>
</clipPath>
</defs>
</svg>
