<svg width="26" height="26" viewBox="0 0 26 26" fill="none" xmlns="http://www.w3.org/2000/svg">
<path d="M4.11125 14.7451L4.87013 16.2401C4.35012 16.752 4.0625 17.3094 4.0625 17.8749C4.0625 19.9646 8.00638 21.9374 13 21.9374C17.9936 21.9374 21.9375 19.9646 21.9375 17.8749C21.9375 17.3094 21.6483 16.7536 21.1299 16.2417L21.9034 14.7581C22.9515 15.6356 23.5625 16.6984 23.5625 17.8749C23.5625 21.1687 18.7752 23.5624 13 23.5624C7.22475 23.5624 2.4375 21.1687 2.4375 17.8749C2.4375 16.6919 3.055 15.6259 4.11125 14.7451Z" fill="#0051BA"/>
<path d="M4.11125 9.87012L4.87013 11.3651C4.35012 11.8786 4.0625 12.436 4.0625 12.9999C4.0625 15.0896 8.00638 17.0624 13 17.0624C17.9936 17.0624 21.9375 15.0896 21.9375 12.9999C21.9375 12.4344 21.6483 11.8786 21.1299 11.3667L21.9034 9.88312C22.9515 10.7606 23.5625 11.8234 23.5625 12.9999C23.5625 16.2937 18.7752 18.6874 13 18.6874C7.22475 18.6874 2.4375 16.2937 2.4375 12.9999C2.4375 11.8169 3.055 10.7509 4.11125 9.87012Z" fill="#0051BA"/>
<path d="M13 13.8125C7.22475 13.8125 2.4375 11.4189 2.4375 8.125C2.4375 4.83113 7.22475 2.4375 13 2.4375C18.7752 2.4375 23.5625 4.83113 23.5625 8.125C23.5625 11.4189 18.7752 13.8125 13 13.8125ZM13 12.1875C17.9936 12.1875 21.9375 10.2148 21.9375 8.125C21.9375 6.03525 17.9936 4.0625 13 4.0625C8.00638 4.0625 4.0625 6.03525 4.0625 8.125C4.0625 10.2148 8.00638 12.1875 13 12.1875Z" fill="#0051BA"/>
</svg>
