<svg width="24" height="25" viewBox="0 0 24 25" fill="none" xmlns="http://www.w3.org/2000/svg">
<path d="M21 15.4805C21 16.0109 20.7893 16.5196 20.4142 16.8947C20.0391 17.2698 19.5304 17.4805 19 17.4805H7L3 21.4805V5.48047C3 4.95004 3.21071 4.44133 3.58579 4.06626C3.96086 3.69118 4.46957 3.48047 5 3.48047H19C19.5304 3.48047 20.0391 3.69118 20.4142 4.06626C20.7893 4.44133 21 4.95004 21 5.48047V15.4805Z" stroke="#13378D" stroke-width="2" stroke-linecap="round" stroke-linejoin="round"/>
<path d="M12.0918 14.3477H16.5918" stroke="#13378D" stroke-width="1.5" stroke-linecap="round" stroke-linejoin="round"/>
<path d="M14.3418 6.09777C14.5407 5.89886 14.8105 5.78711 15.0918 5.78711C15.2311 5.78711 15.369 5.81454 15.4977 5.86785C15.6264 5.92115 15.7433 5.99928 15.8418 6.09777C15.9403 6.19626 16.0184 6.31319 16.0717 6.44187C16.125 6.57056 16.1525 6.70848 16.1525 6.84777C16.1525 6.98706 16.125 7.12498 16.0717 7.25367C16.0184 7.38235 15.9403 7.49928 15.8418 7.59777L9.5918 13.8478L7.5918 14.3478L8.0918 12.3478L14.3418 6.09777Z" stroke="#13378D" stroke-width="1.5" stroke-linecap="round" stroke-linejoin="round"/>
</svg>
