<svg width="24" height="25" viewBox="0 0 24 25" fill="none" xmlns="http://www.w3.org/2000/svg">
<path d="M14 2.48047H6C5.46957 2.48047 4.96086 2.69118 4.58579 3.06626C4.21071 3.44133 4 3.95004 4 4.48047V20.4805C4 21.0109 4.21071 21.5196 4.58579 21.8947C4.96086 22.2698 5.46957 22.4805 6 22.4805H18C18.5304 22.4805 19.0391 22.2698 19.4142 21.8947C19.7893 21.5196 20 21.0109 20 20.4805V8.48047L14 2.48047Z" stroke="#13378D" stroke-width="2" stroke-linecap="round" stroke-linejoin="round"/>
<path d="M14 2.48047V8.48047H20" stroke="#13378D" stroke-width="2" stroke-linecap="round" stroke-linejoin="round"/>
<path d="M16 13.4805H8" stroke="#13378D" stroke-width="2" stroke-linecap="round" stroke-linejoin="round"/>
<path d="M16 17.4805H8" stroke="#13378D" stroke-width="2" stroke-linecap="round" stroke-linejoin="round"/>
<path d="M10 9.48047H9H8" stroke="#13378D" stroke-width="2" stroke-linecap="round" stroke-linejoin="round"/>
</svg>
