<svg width="26" height="26" viewBox="0 0 26 26" fill="none" xmlns="http://www.w3.org/2000/svg">
<path d="M8.80937 13.6745C5.49341 11.1946 3.1281 8.46659 1.83611 6.93327C1.43611 6.45861 1.30545 6.11062 1.22678 5.49862C0.957453 3.40264 0.822787 2.35465 1.43745 1.67733C2.05211 1 3.13876 1 5.31208 1H20.6879C22.8612 1 23.9479 1 24.5626 1.67599C25.1772 2.35332 25.0425 3.40131 24.7732 5.49729C24.6932 6.10928 24.5625 6.45728 24.1639 6.93194C22.8706 8.46793 20.5013 11.2012 17.1773 13.6852C17.0236 13.8048 16.8965 13.9552 16.8042 14.1267C16.7119 14.2982 16.6564 14.487 16.6413 14.6812C16.312 18.3225 16.008 20.3171 15.8186 21.3251C15.5133 22.9544 13.2053 23.9344 11.968 24.8078C11.232 25.3278 10.3387 24.7091 10.244 23.9038C9.88999 20.8351 9.59039 17.7605 9.34537 14.6812C9.33167 14.4852 9.27687 14.2943 9.18452 14.1208C9.09218 13.9474 8.96436 13.7953 8.80937 13.6745Z" stroke="#0051BA" stroke-width="2" stroke-linecap="round" stroke-linejoin="round"/>
</svg>
