<svg width="24" height="25" viewBox="0 0 24 25" fill="none" xmlns="http://www.w3.org/2000/svg">
<path d="M12 22.4805C17.5228 22.4805 22 18.0033 22 12.4805C22 6.95762 17.5228 2.48047 12 2.48047C6.47715 2.48047 2 6.95762 2 12.4805C2 18.0033 6.47715 22.4805 12 22.4805Z" stroke="#13378D" stroke-width="2" stroke-linecap="round" stroke-linejoin="round"/>
<path d="M9.08984 9.48104C9.32495 8.81271 9.789 8.24915 10.3998 7.89017C11.0106 7.5312 11.7287 7.39998 12.427 7.51975C13.1253 7.63952 13.7587 8.00256 14.2149 8.54457C14.6712 9.08657 14.9209 9.77256 14.9198 10.481C14.9198 12.481 11.9198 13.481 11.9198 13.481" stroke="#13378D" stroke-width="2" stroke-linecap="round" stroke-linejoin="round"/>
<path d="M12 17.4805H12.01" stroke="#13378D" stroke-width="2" stroke-linecap="round" stroke-linejoin="round"/>
</svg>
