<svg width="30" height="30" viewBox="0 0 30 30" fill="none" xmlns="http://www.w3.org/2000/svg">
<path d="M15 16.2504C14.3369 16.2504 13.701 15.987 13.2321 15.5181C12.7632 15.0492 12.4998 14.4133 12.4998 13.7502C12.4998 13.0871 12.7632 12.4512 13.2321 11.9823C13.701 11.5134 14.3369 11.25 15 11.25C15.6631 11.25 16.299 11.5134 16.7679 11.9823C17.2368 12.4512 17.5002 13.0871 17.5002 13.7502C17.5002 14.4133 17.2368 15.0492 16.7679 15.5181C16.299 15.987 15.6631 16.2504 15 16.2504ZM15 16.2504C15.9946 16.2504 16.9484 16.6449 17.6517 17.3481C18.3549 18.0514 18.75 19.0052 18.75 19.9998V21.2502H11.25V19.9998C11.25 19.0052 11.6451 18.0514 12.3483 17.3481C13.0516 16.6449 14.0054 16.2504 15 16.2504Z" stroke="#0051BA" stroke-width="2" stroke-linecap="round" stroke-linejoin="round"/>
<path d="M19.375 3.75H16.8748L15.625 6.2502H18.1246L19.375 3.75ZM11.875 6.2502H14.3746L13.1248 3.75H10.6246L11.875 6.2502ZM7.4998 6.2502H22.4998C22.8313 6.2502 23.1492 6.38188 23.3835 6.61626C23.6179 6.85064 23.7496 7.16853 23.7496 7.5V25.0002C23.7496 25.3317 23.6179 25.6496 23.3835 25.8839C23.1492 26.1183 22.8313 26.25 22.4998 26.25H7.4998C7.16833 26.25 6.85044 26.1183 6.61606 25.8839C6.38168 25.6496 6.25 25.3317 6.25 25.0002V7.5C6.25 7.16853 6.38168 6.85064 6.61606 6.61626C6.85044 6.38188 7.16833 6.2502 7.4998 6.2502Z" stroke="#0051BA" stroke-width="2" stroke-linecap="round" stroke-linejoin="round"/>
</svg>
