<svg width="43" height="42" viewBox="0 0 43 42" fill="none" xmlns="http://www.w3.org/2000/svg">
<path d="M29.25 17.374C31.3901 17.374 33.125 15.6391 33.125 13.499C33.125 11.3589 31.3901 9.62402 29.25 9.62402C27.1099 9.62402 25.375 11.3589 25.375 13.499C25.375 15.6391 27.1099 17.374 29.25 17.374Z" fill="#0051BA" stroke="#0051BA" stroke-width="2.68269"/>
<path d="M2.125 22.219L5.5195 19.2488C6.37033 18.505 7.472 18.1122 8.60152 18.15C9.73104 18.1877 10.804 18.6532 11.6033 19.4523L19.9151 27.7642C20.5601 28.409 21.4119 28.8057 22.3206 28.8844C23.2293 28.9631 24.1366 28.7187 24.8829 28.1943L25.4622 27.7874C26.5387 27.0314 27.8397 26.6628 29.1528 26.742C30.4658 26.8212 31.7132 27.3434 32.691 28.2233L38.9375 33.844" stroke="#0051BA" stroke-width="2.68269" stroke-linecap="round"/>
<path d="M40.875 21.25C40.875 30.3834 40.875 34.9501 38.0366 37.7866C35.202 40.625 30.6334 40.625 21.5 40.625C12.3666 40.625 7.79994 40.625 4.9615 37.7866C2.125 34.952 2.125 30.3834 2.125 21.25C2.125 12.1166 2.125 7.54994 4.9615 4.7115C7.80188 1.875 12.3666 1.875 21.5 1.875C30.6334 1.875 35.2001 1.875 38.0366 4.7115C39.9237 6.59863 40.5553 9.25106 40.7684 13.5" stroke="#0051BA" stroke-width="2.68269" stroke-linecap="round"/>
</svg>
