<svg width="32" height="33" viewBox="0 0 32 33" fill="none" xmlns="http://www.w3.org/2000/svg">
<rect y="0.480469" width="32" height="32" rx="16" fill="#13378D"/>
<path d="M16.0025 12.2735C13.6734 12.2735 11.7947 14.1522 11.7947 16.4813C11.7947 18.8104 13.6734 20.689 16.0025 20.689C18.3316 20.689 20.2103 18.8104 20.2103 16.4813C20.2103 14.1522 18.3316 12.2735 16.0025 12.2735ZM16.0025 19.2169C14.4974 19.2169 13.2669 17.9901 13.2669 16.4813C13.2669 14.9725 14.4937 13.7457 16.0025 13.7457C17.5113 13.7457 18.7381 14.9725 18.7381 16.4813C18.7381 17.9901 17.5076 19.2169 16.0025 19.2169ZM21.3638 12.1014C21.3638 12.647 20.9244 13.0828 20.3824 13.0828C19.8367 13.0828 19.4009 12.6434 19.4009 12.1014C19.4009 11.5594 19.8404 11.1199 20.3824 11.1199C20.9244 11.1199 21.3638 11.5594 21.3638 12.1014ZM24.1507 13.0975C24.0884 11.7828 23.7881 10.6182 22.825 9.65875C21.8655 8.69928 20.701 8.39899 19.3863 8.33307C18.0313 8.25616 13.97 8.25616 12.6151 8.33307C11.304 8.39532 10.1395 8.69562 9.17633 9.65509C8.2132 10.6146 7.91656 11.7791 7.85065 13.0938C7.77374 14.4488 7.77374 18.5101 7.85065 19.8651C7.9129 21.1797 8.2132 22.3443 9.17633 23.3038C10.1395 24.2632 11.3004 24.5635 12.6151 24.6295C13.97 24.7064 18.0313 24.7064 19.3863 24.6295C20.701 24.5672 21.8655 24.2669 22.825 23.3038C23.7845 22.3443 24.0848 21.1797 24.1507 19.8651C24.2276 18.5101 24.2276 14.4525 24.1507 13.0975ZM22.4002 21.3189C22.1146 22.0367 21.5616 22.5897 20.8401 22.879C19.7598 23.3074 17.1964 23.2086 16.0025 23.2086C14.8087 23.2086 12.2415 23.3038 11.1649 22.879C10.4471 22.5933 9.8941 22.0403 9.6048 21.3189C9.17633 20.2386 9.27521 17.6751 9.27521 16.4813C9.27521 15.2874 9.17999 12.7203 9.6048 11.6436C9.89044 10.9258 10.4434 10.3729 11.1649 10.0836C12.2452 9.65509 14.8087 9.75397 16.0025 9.75397C17.1964 9.75397 19.7635 9.65875 20.8401 10.0836C21.5579 10.3692 22.1109 10.9222 22.4002 11.6436C22.8287 12.7239 22.7298 15.2874 22.7298 16.4813C22.7298 17.6751 22.8287 20.2422 22.4002 21.3189Z" fill="white"/>
</svg>
