<svg width="20" height="18" viewBox="0 0 20 18" fill="none" xmlns="http://www.w3.org/2000/svg">
<path d="M18.166 7.83349H4.32935L8.56435 2.74683C8.76238 2.50857 8.85765 2.20141 8.82921 1.89291C8.80076 1.58442 8.65094 1.29985 8.41268 1.10183C8.17443 0.903797 7.86727 0.808525 7.55877 0.836968C7.25027 0.865411 6.96571 1.01524 6.76768 1.25349L0.934349 8.25349C0.895103 8.30917 0.860008 8.36766 0.829349 8.42849C0.829349 8.48683 0.829349 8.52183 0.747682 8.58016C0.694802 8.71393 0.667114 8.85632 0.666016 9.00016C0.667114 9.144 0.694802 9.28639 0.747682 9.42016C0.747682 9.47849 0.747682 9.51349 0.829349 9.57183C0.860008 9.63266 0.895103 9.69115 0.934349 9.74683L6.76768 16.7468C6.87737 16.8785 7.01474 16.9844 7.17 17.057C7.32527 17.1296 7.49462 17.1671 7.66602 17.1668C7.93861 17.1674 8.20279 17.0724 8.41268 16.8985C8.53082 16.8006 8.62847 16.6803 8.70005 16.5445C8.77162 16.4088 8.81572 16.2603 8.82981 16.1075C8.8439 15.9547 8.8277 15.8006 8.78215 15.654C8.7366 15.5075 8.66258 15.3714 8.56435 15.2535L4.32935 10.1668H18.166C18.4754 10.1668 18.7722 10.0439 18.991 9.82512C19.2098 9.60632 19.3327 9.30958 19.3327 9.00016C19.3327 8.69074 19.2098 8.39399 18.991 8.1752C18.7722 7.95641 18.4754 7.83349 18.166 7.83349Z" fill="#13378D"/>
</svg>
