<svg width="26" height="26" viewBox="0 0 26 26" fill="none" xmlns="http://www.w3.org/2000/svg">
<path d="M13.0007 18.4173C12.426 18.4173 11.8749 18.189 11.4686 17.7827C11.0623 17.3764 10.834 16.8253 10.834 16.2507C10.834 15.0482 11.7982 14.084 13.0007 14.084C13.5753 14.084 14.1264 14.3123 14.5327 14.7186C14.939 15.1249 15.1673 15.676 15.1673 16.2507C15.1673 16.8253 14.939 17.3764 14.5327 17.7827C14.1264 18.189 13.5753 18.4173 13.0007 18.4173ZM19.5007 21.6673V10.834H6.50065V21.6673H19.5007ZM19.5007 8.66732C20.0753 8.66732 20.6264 8.89559 21.0327 9.30192C21.439 9.70825 21.6673 10.2593 21.6673 10.834V21.6673C21.6673 22.242 21.439 22.7931 21.0327 23.1994C20.6264 23.6057 20.0753 23.834 19.5007 23.834H6.50065C5.92602 23.834 5.37492 23.6057 4.96859 23.1994C4.56226 22.7931 4.33398 22.242 4.33398 21.6673V10.834C4.33398 9.63148 5.29815 8.66732 6.50065 8.66732H7.58398V6.50065C7.58398 5.06406 8.15467 3.68631 9.17049 2.67049C10.1863 1.65467 11.5641 1.08398 13.0007 1.08398C13.712 1.08398 14.4163 1.22409 15.0735 1.4963C15.7307 1.76852 16.3278 2.16751 16.8308 2.67049C17.3338 3.17347 17.7328 3.7706 18.005 4.42778C18.2772 5.08496 18.4173 5.78932 18.4173 6.50065V8.66732H19.5007ZM13.0007 3.25065C12.1387 3.25065 11.312 3.59306 10.7026 4.20255C10.0931 4.81205 9.75065 5.6387 9.75065 6.50065V8.66732H16.2507V6.50065C16.2507 5.6387 15.9082 4.81205 15.2987 4.20255C14.6893 3.59306 13.8626 3.25065 13.0007 3.25065Z" fill="#0051BA"/>
</svg>
