<svg width="30" height="30" viewBox="0 0 30 30" fill="none" xmlns="http://www.w3.org/2000/svg">
<path d="M16.2906 9.77123V12.3062C16.2906 12.3987 16.2868 12.4912 16.2806 12.5825C16.318 12.7474 16.3884 12.9029 16.4877 13.0398C16.587 13.1767 16.713 13.292 16.8581 13.3787L20.7156 15.6862C21.2721 16.0191 21.7328 16.4907 22.0527 17.0548C22.3726 17.619 22.5406 18.2565 22.5406 18.905V20.2287C23.3713 20.5336 24.0675 21.1224 24.5061 21.891C24.9448 22.6596 25.0976 23.5585 24.9375 24.4288C24.7774 25.2991 24.3148 26.0849 23.6315 26.6471C22.9481 27.2094 22.088 27.5119 21.2031 27.5013C20.3182 27.4907 19.4656 27.1676 18.7959 26.5891C18.1263 26.0106 17.6826 25.214 17.5435 24.3401C17.4044 23.4661 17.5787 22.5712 18.0356 21.8133C18.4926 21.0555 19.2027 20.4836 20.0406 20.1987V18.905C20.0405 18.6888 19.9843 18.4764 19.8776 18.2884C19.771 18.1005 19.6173 17.9434 19.4318 17.8325L15.5743 15.525C15.3773 15.4072 15.1915 15.2717 15.0193 15.12C14.8475 15.2716 14.6621 15.4072 14.4656 15.525L10.6081 17.8325C10.4225 17.9434 10.2689 18.1005 10.1622 18.2884C10.0555 18.4764 9.99939 18.6888 9.99931 18.905V20.2137C10.8337 20.5086 11.5369 21.089 11.9848 21.8522C12.4326 22.6155 12.5962 23.5125 12.4466 24.3847C12.297 25.2569 11.8438 26.0482 11.1673 26.6186C10.4907 27.189 9.63425 27.5018 8.74931 27.5018C7.86436 27.5018 7.00791 27.189 6.33134 26.6186C5.65477 26.0482 5.20163 25.2569 5.05204 24.3847C4.90245 23.5125 5.06602 22.6155 5.51385 21.8522C5.96169 21.089 6.66494 20.5086 7.4993 20.2137V18.905C7.49921 18.2565 7.66731 17.619 7.98717 17.0548C8.30704 16.4907 8.76775 16.0191 9.32431 15.6862L13.1818 13.3787C13.3269 13.292 13.4529 13.1767 13.5522 13.0398C13.6514 12.9029 13.7219 12.7474 13.7593 12.5825C13.7526 12.4906 13.7492 12.3984 13.7493 12.3062V9.78623C12.9167 9.49202 12.2146 8.91352 11.7665 8.15256C11.3185 7.39161 11.1533 6.49698 11.3 5.62619C11.4466 4.7554 11.8958 3.96427 12.5684 3.39208C13.241 2.81989 14.0939 2.50332 14.977 2.49811C15.86 2.4929 16.7166 2.79938 17.3959 3.36359C18.0752 3.9278 18.5337 4.71357 18.6906 5.58257C18.8476 6.45157 18.6929 7.34808 18.2539 8.11427C17.8149 8.88046 17.1196 9.46722 16.2906 9.77123Z" fill="#0051BA"/>
</svg>
