<svg width="27" height="28" viewBox="0 0 27 28" fill="none" xmlns="http://www.w3.org/2000/svg">
<path d="M19.125 25.0252L8.10002 14.0002H18.9L7.51502 2.61523H6.25502C4.33531 3.82976 2.75473 5.51101 1.66089 7.50196C0.567055 9.49291 -0.004357 11.7286 2.50145e-05 14.0002C2.50145e-05 21.4702 6.03002 27.5002 13.5 27.5002C15.48 27.5002 17.415 27.0502 19.125 26.2852V25.0252Z" fill="#ED4C5C"/>
<path d="M13.5 0.5C11.52 0.5 9.585 0.95 7.875 1.715V3.875L17.325 13.325H7.875V14.765L18.495 25.385H20.745C24.525 23 27 18.77 27 14C27 6.53 20.97 0.5 13.5 0.5Z" fill="#F9F9F9"/>
<path d="M7.87445 1.71484C7.28945 1.98484 6.74945 2.25484 6.20945 2.61484L16.7394 13.0998H5.93945L19.1244 26.2848C19.7094 26.0148 20.2494 25.7448 20.7894 25.3848L10.2594 14.8998H21.0594L7.87445 1.71484Z" fill="#428BC1"/>
<path d="M7.92039 9.4098C8.05539 9.1848 8.10039 8.8698 8.10039 8.5998C8.10039 7.6098 7.29039 6.7998 6.30039 6.7998C5.31039 6.7998 4.50039 7.6098 4.50039 8.5998C4.50039 8.9148 4.59039 9.1848 4.68039 9.4098C3.82539 9.0498 3.15039 8.5998 3.15039 8.5998C3.15039 8.5998 3.82539 11.2998 6.30039 11.2998C8.82038 11.2998 9.45038 8.5998 9.45038 8.5998C9.45038 8.5998 8.77539 9.0498 7.92039 9.4098ZM6.30039 17.4198L7.02039 16.6998L7.29039 17.6898L8.28039 17.4198L8.01039 18.4098L9.00039 18.6798L8.28039 19.3998L9.00039 20.1198L8.01039 20.3898L8.28039 21.3798L7.29039 21.1098L7.02039 22.0998L6.30039 21.3798L5.58039 22.0998L5.31039 21.1098L4.32039 21.3798L4.59039 20.3898L3.60039 20.1198L4.32039 19.3998L3.60039 18.6798L4.59039 18.4098L4.32039 17.4198L5.31039 17.6898L5.58039 16.6998L6.30039 17.4198Z" fill="white"/>
</svg>
