<svg width="25" height="24" viewBox="0 0 25 24" fill="none" xmlns="http://www.w3.org/2000/svg">
<g clip-path="url(#clip0_4133_10772)">
<path fill-rule="evenodd" clip-rule="evenodd" d="M0.75 8.40098C0.75 7.76446 1.00286 7.15401 1.45294 6.70392C1.90303 6.25383 2.51348 6.00098 3.15 6.00098H22.35C22.9865 6.00098 23.597 6.25383 24.0471 6.70392C24.4971 7.15401 24.75 7.76446 24.75 8.40098V21.601C24.75 22.2375 24.4971 22.8479 24.0471 23.298C23.597 23.7481 22.9865 24.001 22.35 24.001H3.15C2.51348 24.001 1.90303 23.7481 1.45294 23.298C1.00286 22.8479 0.75 22.2375 0.75 21.601V8.40098ZM22.35 8.40098H3.15V21.601H22.35V8.40098Z" fill="#0051BA"/>
<path fill-rule="evenodd" clip-rule="evenodd" d="M7.64985 11.4006C7.64985 11.1619 7.74467 10.933 7.91346 10.7642C8.08224 10.5954 8.31116 10.5006 8.54985 10.5006H16.9499C17.1885 10.5006 17.4175 10.5954 17.5862 10.7642C17.755 10.933 17.8499 11.1619 17.8499 11.4006C17.8499 11.6393 17.755 11.8682 17.5862 12.037C17.4175 12.2057 17.1885 12.3006 16.9499 12.3006H8.54985C8.31116 12.3006 8.08224 12.2057 7.91346 12.037C7.74467 11.8682 7.64985 11.6393 7.64985 11.4006ZM6.44985 15.0006C6.44985 14.7619 6.54467 14.533 6.71346 14.3642C6.88224 14.1954 7.11116 14.1006 7.34985 14.1006H18.1499C18.3885 14.1006 18.6175 14.1954 18.7862 14.3642C18.955 14.533 19.0499 14.7619 19.0499 15.0006C19.0499 15.2393 18.955 15.4682 18.7862 15.637C18.6175 15.8057 18.3885 15.9006 18.1499 15.9006H7.34985C7.11116 15.9006 6.88224 15.8057 6.71346 15.637C6.54467 15.4682 6.44985 15.2393 6.44985 15.0006ZM7.64985 18.6006C7.64985 18.3619 7.74467 18.133 7.91346 17.9642C8.08224 17.7954 8.31116 17.7006 8.54985 17.7006H16.9499C17.1885 17.7006 17.4175 17.7954 17.5862 17.9642C17.755 18.133 17.8499 18.3619 17.8499 18.6006C17.8499 18.8393 17.755 19.0682 17.5862 19.237C17.4175 19.4057 17.1885 19.5006 16.9499 19.5006H8.54985C8.31116 19.5006 8.08224 19.4057 7.91346 19.237C7.74467 19.0682 7.64985 18.8393 7.64985 18.6006ZM14.4467 3.39417C13.9966 2.94424 13.3862 2.69148 12.7499 2.69148C12.1135 2.69148 11.5031 2.94424 11.0531 3.39417L6.39825 8.05017C6.28676 8.16158 6.15442 8.24994 6.00877 8.31021C5.86313 8.37048 5.70705 8.40147 5.54943 8.40141C5.39181 8.40135 5.23575 8.37025 5.09015 8.30988C4.94455 8.24952 4.81227 8.16106 4.70085 8.04957C4.58944 7.93807 4.50108 7.80573 4.44081 7.66009C4.38054 7.51445 4.34955 7.35836 4.34961 7.20074C4.34967 7.04312 4.38077 6.88706 4.44114 6.74146C4.5015 6.59586 4.58996 6.46358 4.70145 6.35217L9.35625 1.69737C10.2564 0.797506 11.4771 0.291992 12.7499 0.291992C14.0226 0.291992 15.2433 0.797506 16.1435 1.69737L20.7995 6.35217C21.0245 6.57734 21.1508 6.88267 21.1507 7.20099C21.1506 7.51932 21.024 7.82456 20.7989 8.04957C20.5737 8.27458 20.2684 8.40092 19.95 8.40081C19.6317 8.4007 19.3265 8.27414 19.1015 8.04897L14.4467 3.39417Z" fill="#0051BA"/>
</g>
<defs>
<clipPath id="clip0_4133_10772">
<rect width="24" height="24" fill="white" transform="translate(0.75)"/>
</clipPath>
</defs>
</svg>
