<svg width="24" height="26" viewBox="0 0 24 26" fill="none" xmlns="http://www.w3.org/2000/svg">
<g clip-path="url(#clip0_4293_10257)">
<path d="M2.625 25.6C1.92881 25.6 1.26113 25.305 0.768845 24.7799C0.276562 24.2548 0 23.5426 0 22.8L0 2.8C0 1.2544 1.176 0 2.625 0H15.375C16.824 0 18 1.2544 18 2.8V22.8C18 22.9355 17.991 23.0688 17.973 23.2H21.375C21.4745 23.2 21.5698 23.1579 21.6402 23.0828C21.7105 23.0078 21.75 22.9061 21.75 22.8V13.256C21.75 13.1902 21.7349 13.1254 21.7058 13.0673C21.6768 13.0093 21.6348 12.9598 21.5835 12.9232L20.001 11.7984C19.8781 11.711 19.7725 11.5986 19.6903 11.4677C19.6081 11.3368 19.5509 11.1898 19.5219 11.0353C19.4929 10.8808 19.4928 10.7217 19.5215 10.5671C19.5501 10.4126 19.6071 10.2655 19.689 10.1344C19.7709 10.0033 19.8763 9.89068 19.999 9.80299C20.1218 9.71531 20.2595 9.65428 20.4044 9.62337C20.5492 9.59247 20.6984 9.5923 20.8433 9.62288C20.9882 9.65346 21.1261 9.71419 21.249 9.8016L22.8315 10.9264C23.562 11.4464 24 12.32 24 13.256V22.8C24 23.5426 23.7234 24.2548 23.2312 24.7799C22.7389 25.305 22.0712 25.6 21.375 25.6H16.125C16.0253 25.5993 15.926 25.5853 15.8295 25.5584C15.6815 25.5861 15.53 25.6 15.375 25.6H10.875C10.5766 25.6 10.2905 25.4736 10.0795 25.2485C9.86853 25.0235 9.75 24.7183 9.75 24.4V22.4H8.25V24.4C8.25 24.7183 8.13147 25.0235 7.9205 25.2485C7.70952 25.4736 7.42337 25.6 7.125 25.6H2.625ZM2.25 22.8C2.25 23.0208 2.418 23.2 2.625 23.2H6V21.2C6 20.8817 6.11853 20.5765 6.3295 20.3515C6.54048 20.1264 6.82663 20 7.125 20H10.875C11.1734 20 11.4595 20.1264 11.6705 20.3515C11.8815 20.5765 12 20.8817 12 21.2V23.2H15.375C15.4745 23.2 15.5698 23.1579 15.6402 23.0828C15.7105 23.0078 15.75 22.9061 15.75 22.8V2.8C15.75 2.69391 15.7105 2.59217 15.6402 2.51716C15.5698 2.44214 15.4745 2.4 15.375 2.4H2.625C2.52554 2.4 2.43016 2.44214 2.35984 2.51716C2.28951 2.59217 2.25 2.69391 2.25 2.8V22.8ZM5.625 9.6H6.375C6.67337 9.6 6.95952 9.72643 7.1705 9.95147C7.38147 10.1765 7.5 10.4817 7.5 10.8C7.5 11.1183 7.38147 11.4235 7.1705 11.6485C6.95952 11.8736 6.67337 12 6.375 12H5.625C5.32663 12 5.04048 11.8736 4.8295 11.6485C4.61853 11.4235 4.5 11.1183 4.5 10.8C4.5 10.4817 4.61853 10.1765 4.8295 9.95147C5.04048 9.72643 5.32663 9.6 5.625 9.6ZM4.5 6C4.5 5.68174 4.61853 5.37652 4.8295 5.15147C5.04048 4.92643 5.32663 4.8 5.625 4.8H6.375C6.67337 4.8 6.95952 4.92643 7.1705 5.15147C7.38147 5.37652 7.5 5.68174 7.5 6C7.5 6.31826 7.38147 6.62348 7.1705 6.84853C6.95952 7.07357 6.67337 7.2 6.375 7.2H5.625C5.32663 7.2 5.04048 7.07357 4.8295 6.84853C4.61853 6.62348 4.5 6.31826 4.5 6ZM10.5 10.8C10.5 10.4817 10.6185 10.1765 10.8295 9.95147C11.0405 9.72643 11.3266 9.6 11.625 9.6H12.375C12.6734 9.6 12.9595 9.72643 13.1705 9.95147C13.3815 10.1765 13.5 10.4817 13.5 10.8C13.5 11.1183 13.3815 11.4235 13.1705 11.6485C12.9595 11.8736 12.6734 12 12.375 12H11.625C11.3266 12 11.0405 11.8736 10.8295 11.6485C10.6185 11.4235 10.5 11.1183 10.5 10.8ZM11.625 4.8H12.375C12.6734 4.8 12.9595 4.92643 13.1705 5.15147C13.3815 5.37652 13.5 5.68174 13.5 6C13.5 6.31826 13.3815 6.62348 13.1705 6.84853C12.9595 7.07357 12.6734 7.2 12.375 7.2H11.625C11.3266 7.2 11.0405 7.07357 10.8295 6.84853C10.6185 6.62348 10.5 6.31826 10.5 6C10.5 5.68174 10.6185 5.37652 10.8295 5.15147C11.0405 4.92643 11.3266 4.8 11.625 4.8ZM4.5 15.6C4.5 15.2817 4.61853 14.9765 4.8295 14.7515C5.04048 14.5264 5.32663 14.4 5.625 14.4H6.375C6.67337 14.4 6.95952 14.5264 7.1705 14.7515C7.38147 14.9765 7.5 15.2817 7.5 15.6C7.5 15.9183 7.38147 16.2235 7.1705 16.4485C6.95952 16.6736 6.67337 16.8 6.375 16.8H5.625C5.32663 16.8 5.04048 16.6736 4.8295 16.4485C4.61853 16.2235 4.5 15.9183 4.5 15.6ZM11.625 14.4H12.375C12.6734 14.4 12.9595 14.5264 13.1705 14.7515C13.3815 14.9765 13.5 15.2817 13.5 15.6C13.5 15.9183 13.3815 16.2235 13.1705 16.4485C12.9595 16.6736 12.6734 16.8 12.375 16.8H11.625C11.3266 16.8 11.0405 16.6736 10.8295 16.4485C10.6185 16.2235 10.5 15.9183 10.5 15.6C10.5 15.2817 10.6185 14.9765 10.8295 14.7515C11.0405 14.5264 11.3266 14.4 11.625 14.4Z" fill="#0051BA"/>
</g>
<defs>
<clipPath id="clip0_4293_10257">
<rect width="24" height="25.6" fill="white"/>
</clipPath>
</defs>
</svg>
