<svg width="39" height="42" viewBox="0 0 39 42" fill="none" xmlns="http://www.w3.org/2000/svg">
<path d="M30.2933 13.4784L31.1731 12.5967C31.8737 11.8959 32.8239 11.5021 33.8148 11.502C34.8056 11.5018 35.756 11.8952 36.4568 12.5958C37.1575 13.2963 37.5513 14.2465 37.5515 15.2374C37.5517 16.2282 37.1582 17.1786 36.4577 17.8794L35.5779 18.7611M30.2933 13.4784C30.2933 13.4784 30.4036 15.3483 32.0549 16.9996C33.7062 18.6509 35.5779 18.7611 35.5779 18.7611M30.2933 13.4784L22.1983 21.5734C21.6472 22.1207 21.3736 22.3962 21.138 22.6984C20.8605 23.0556 20.623 23.4395 20.4273 23.8499C20.262 24.1958 20.1404 24.5625 19.8952 25.2979L18.8558 28.4162M35.5779 18.7611L27.4829 26.8561C26.9318 27.4072 26.6582 27.6808 26.356 27.9164C25.9988 28.1939 25.6149 28.4314 25.2045 28.6271C24.8587 28.7925 24.4919 28.9141 23.7565 29.1592L20.6382 30.1986M18.8558 28.4162L18.6031 29.1801C18.5442 29.3574 18.5358 29.5476 18.5788 29.7294C18.6219 29.9112 18.7146 30.0775 18.8467 30.2096C18.9788 30.3417 19.1451 30.4345 19.3269 30.4775C19.5087 30.5205 19.6989 30.5121 19.8762 30.4533L20.6382 30.1986M18.8558 28.4162L20.6382 30.1986M10.9485 22.9026H15.6991M10.9485 15.3017H23.3M10.9485 30.5036H13.7988M1.44727 24.8029V17.2019C1.44727 10.0361 1.44727 6.45226 3.67435 4.22708C5.89953 2 9.48338 2 16.6492 2H20.4497C27.6155 2 31.1993 2 33.4245 4.22708M35.6516 24.8029C35.6516 31.9687 35.6516 35.5525 33.4245 37.7777M33.4245 37.7777C31.1993 40.0048 27.6155 40.0048 20.4497 40.0048H16.6492C9.48338 40.0048 5.89953 40.0048 3.67435 37.7777M33.4245 37.7777C35.2183 35.9858 35.5661 33.316 35.6345 28.6034" stroke="#0051BA" stroke-width="2.6311" stroke-linecap="round"/>
</svg>
