<svg width="30" height="30" viewBox="0 0 24 24" fill="none" xmlns="http://www.w3.org/2000/svg">
<path d="M13.5 15L13.5 19.5C13.5 19.8978 13.658 20.2794 13.9393 20.5607C14.2206 20.842 14.6022 21 15 21L19.5 21C19.8978 21 20.2794 20.842 20.5607 20.5607C20.842 20.2794 21 19.8978 21 19.5L21 15C21 14.6022 20.842 14.2206 20.5607 13.9393C20.2794 13.658 19.8978 13.5 19.5 13.5L18 13.5L18 12C18 11.4033 17.7629 10.831 17.341 10.409C16.919 9.98705 16.3467 9.75 15.75 9.75L12.75 9.75L12.75 6.75L13.5 6.75C13.8978 6.75 14.2794 6.59196 14.5607 6.31066C14.842 6.02936 15 5.64782 15 5.25L15 2.25C15 1.85217 14.842 1.47064 14.5607 1.18934C14.2794 0.908035 13.8978 0.75 13.5 0.75L10.5 0.75C10.1022 0.75 9.72064 0.908035 9.43934 1.18934C9.15804 1.47064 9 1.85217 9 2.25L9 5.25C9 5.64782 9.15804 6.02936 9.43934 6.31066C9.72064 6.59196 10.1022 6.75 10.5 6.75L11.25 6.75L11.25 9.75L8.25 9.75C7.65326 9.75 7.08097 9.98705 6.65901 10.409C6.23705 10.831 6 11.4033 6 12L6 13.5L4.5 13.5C4.10217 13.5 3.72064 13.658 3.43934 13.9393C3.15803 14.2206 3 14.6022 3 15L3 19.5C3 19.8978 3.15803 20.2794 3.43934 20.5607C3.72064 20.842 4.10217 21 4.5 21L9 21C9.39782 21 9.77935 20.842 10.0607 20.5607C10.342 20.2794 10.5 19.8978 10.5 19.5L10.5 15C10.5 14.6022 10.342 14.2206 10.0607 13.9393C9.77935 13.658 9.39782 13.5 9 13.5L7.5 13.5L7.5 12C7.5 11.8011 7.57902 11.6103 7.71967 11.4697C7.86032 11.329 8.05109 11.25 8.25 11.25L15.75 11.25C15.9489 11.25 16.1397 11.329 16.2803 11.4697C16.421 11.6103 16.5 11.8011 16.5 12L16.5 13.5L15 13.5C14.6022 13.5 14.2206 13.658 13.9393 13.9393C13.658 14.2206 13.5 14.6022 13.5 15ZM10.5 5.25L10.5 2.25L13.5 2.25L13.5 5.25L10.5 5.25ZM9 15L9 19.5L4.5 19.5L4.5 15L9 15ZM19.5 15L19.5 19.5L15 19.5L15 15L19.5 15Z" fill="white"/>
</svg>
