<svg width="24" height="25" viewBox="0 0 24 25" fill="none" xmlns="http://www.w3.org/2000/svg">
<g clip-path="url(#clip0_4293_553)">
<path d="M12 15.4805C13.6569 15.4805 15 14.1373 15 12.4805C15 10.8236 13.6569 9.48047 12 9.48047C10.3431 9.48047 9 10.8236 9 12.4805C9 14.1373 10.3431 15.4805 12 15.4805Z" stroke="#0051BA" stroke-width="2" stroke-linecap="round" stroke-linejoin="round"/>
<path d="M19.4 15.4805C19.2669 15.7821 19.2272 16.1167 19.286 16.4411C19.3448 16.7655 19.4995 17.0648 19.73 17.3005L19.79 17.3605C19.976 17.5462 20.1235 17.7668 20.2241 18.0096C20.3248 18.2524 20.3766 18.5126 20.3766 18.7755C20.3766 19.0383 20.3248 19.2986 20.2241 19.5413C20.1235 19.7841 19.976 20.0047 19.79 20.1905C19.6043 20.3764 19.3837 20.5239 19.1409 20.6246C18.8981 20.7252 18.6378 20.777 18.375 20.777C18.1122 20.777 17.8519 20.7252 17.6091 20.6246C17.3663 20.5239 17.1457 20.3764 16.96 20.1905L16.9 20.1305C16.6643 19.8999 16.365 19.7453 16.0406 19.6865C15.7162 19.6276 15.3816 19.6674 15.08 19.8005C14.7842 19.9272 14.532 20.1377 14.3543 20.406C14.1766 20.6743 14.0813 20.9887 14.08 21.3105V21.4805C14.08 22.0109 13.8693 22.5196 13.4942 22.8947C13.1191 23.2698 12.6104 23.4805 12.08 23.4805C11.5496 23.4805 11.0409 23.2698 10.6658 22.8947C10.2907 22.5196 10.08 22.0109 10.08 21.4805V21.3905C10.0723 21.0595 9.96512 20.7385 9.77251 20.4692C9.5799 20.1999 9.31074 19.9948 9 19.8805C8.69838 19.7474 8.36381 19.7076 8.03941 19.7665C7.71502 19.8253 7.41568 19.9799 7.18 20.2105L7.12 20.2705C6.93425 20.4564 6.71368 20.6039 6.47088 20.7046C6.22808 20.8052 5.96783 20.857 5.705 20.857C5.44217 20.857 5.18192 20.8052 4.93912 20.7046C4.69632 20.6039 4.47575 20.4564 4.29 20.2705C4.10405 20.0847 3.95653 19.8641 3.85588 19.6213C3.75523 19.3786 3.70343 19.1183 3.70343 18.8555C3.70343 18.5926 3.75523 18.3324 3.85588 18.0896C3.95653 17.8468 4.10405 17.6262 4.29 17.4405L4.35 17.3805C4.58054 17.1448 4.73519 16.8455 4.794 16.5211C4.85282 16.1967 4.81312 15.8621 4.68 15.5605C4.55324 15.2647 4.34276 15.0125 4.07447 14.8348C3.80618 14.6571 3.49179 14.5618 3.17 14.5605H3C2.46957 14.5605 1.96086 14.3498 1.58579 13.9747C1.21071 13.5996 1 13.0909 1 12.5605C1 12.03 1.21071 11.5213 1.58579 11.1463C1.96086 10.7712 2.46957 10.5605 3 10.5605H3.09C3.42099 10.5527 3.742 10.4456 4.0113 10.253C4.28059 10.0604 4.48572 9.7912 4.6 9.48047C4.73312 9.17885 4.77282 8.84428 4.714 8.51988C4.65519 8.19549 4.50054 7.89615 4.27 7.66047L4.21 7.60047C4.02405 7.41472 3.87653 7.19415 3.77588 6.95135C3.67523 6.70855 3.62343 6.4483 3.62343 6.18547C3.62343 5.92264 3.67523 5.66238 3.77588 5.41959C3.87653 5.17679 4.02405 4.95621 4.21 4.77047C4.39575 4.58452 4.61632 4.437 4.85912 4.33635C5.10192 4.2357 5.36217 4.1839 5.625 4.1839C5.88783 4.1839 6.14808 4.2357 6.39088 4.33635C6.63368 4.437 6.85425 4.58452 7.04 4.77047L7.1 4.83047C7.33568 5.06101 7.63502 5.21565 7.95941 5.27447C8.28381 5.33329 8.61838 5.29358 8.92 5.16047H9C9.29577 5.03371 9.54802 4.82322 9.72569 4.55493C9.90337 4.28664 9.99872 3.97226 10 3.65047V3.48047C10 2.95004 10.2107 2.44133 10.5858 2.06626C10.9609 1.69118 11.4696 1.48047 12 1.48047C12.5304 1.48047 13.0391 1.69118 13.4142 2.06626C13.7893 2.44133 14 2.95004 14 3.48047V3.57047C14.0013 3.89226 14.0966 4.20664 14.2743 4.47493C14.452 4.74322 14.7042 4.95371 15 5.08047C15.3016 5.21358 15.6362 5.25329 15.9606 5.19447C16.285 5.13565 16.5843 4.98101 16.82 4.75047L16.88 4.69047C17.0657 4.50452 17.2863 4.357 17.5291 4.25635C17.7719 4.1557 18.0322 4.1039 18.295 4.1039C18.5578 4.1039 18.8181 4.1557 19.0609 4.25635C19.3037 4.357 19.5243 4.50452 19.71 4.69047C19.896 4.87621 20.0435 5.09679 20.1441 5.33959C20.2448 5.58238 20.2966 5.84264 20.2966 6.10547C20.2966 6.3683 20.2448 6.62855 20.1441 6.87135C20.0435 7.11415 19.896 7.33472 19.71 7.52047L19.65 7.58047C19.4195 7.81615 19.2648 8.11548 19.206 8.43988C19.1472 8.76428 19.1869 9.09885 19.32 9.40047V9.48047C19.4468 9.77624 19.6572 10.0285 19.9255 10.2062C20.1938 10.3838 20.5082 10.4792 20.83 10.4805H21C21.5304 10.4805 22.0391 10.6912 22.4142 11.0663C22.7893 11.4413 23 11.95 23 12.4805C23 13.0109 22.7893 13.5196 22.4142 13.8947C22.0391 14.2698 21.5304 14.4805 21 14.4805H20.91C20.5882 14.4818 20.2738 14.5771 20.0055 14.7548C19.7372 14.9325 19.5268 15.1847 19.4 15.4805Z" stroke="#0051BA" stroke-width="2" stroke-linecap="round" stroke-linejoin="round"/>
</g>
<defs>
<clipPath id="clip0_4293_553">
<rect width="24" height="24" fill="white" transform="translate(0 0.480469)"/>
</clipPath>
</defs>
</svg>
