<svg width="30" height="30" viewBox="0 0 30 30" fill="none" xmlns="http://www.w3.org/2000/svg">
<g clip-path="url(#clip0_3410_50052)">
<path d="M20.358 11.7856V7.49986M1.07227 23.5713L6.30941 27.9341C7.07928 28.5762 8.04983 28.928 9.05227 28.9284H22.8587C23.8444 28.9284 24.6437 28.1291 24.6437 27.1434C24.6437 25.172 23.0451 23.5713 21.0716 23.5713H11.4737M20.358 18.2141C22.6313 18.2141 24.8114 17.3111 26.4189 15.7036C28.0263 14.0962 28.9294 11.916 28.9294 9.64272C28.9294 7.36943 28.0263 5.18926 26.4189 3.5818C24.8114 1.97435 22.6313 1.07129 20.358 1.07129C18.0847 1.07129 15.9045 1.97435 14.2971 3.5818C12.6896 5.18926 11.7866 7.36943 11.7866 9.64272C11.7866 11.916 12.6896 14.0962 14.2971 15.7036C15.9045 17.3111 18.0847 18.2141 20.358 18.2141Z" stroke="#0051BA" stroke-width="2" stroke-linecap="round" stroke-linejoin="round"/>
<path d="M7.50084 21.4284L9.10798 23.0356C9.53422 23.4618 10.1123 23.7013 10.7151 23.7013C11.3179 23.7013 11.896 23.4618 12.3223 23.0356C12.7485 22.6093 12.988 22.0312 12.988 21.4284C12.988 20.8256 12.7485 20.2475 12.3223 19.8213L9.82798 17.327C9.02444 16.5232 7.93453 16.0715 6.79798 16.0713H1.07227" stroke="#0051BA" stroke-width="2" stroke-linecap="round" stroke-linejoin="round"/>
</g>
<defs>
<clipPath id="clip0_3410_50052">
<rect width="30" height="30" fill="white"/>
</clipPath>
</defs>
</svg>
