<svg width="24" height="24" viewBox="0 0 24 24" fill="none" xmlns="http://www.w3.org/2000/svg">
<path d="M22.5001 12C22.5001 6.201 17.7991 1.5 12.0001 1.5C10.2021 1.5 8.50712 1.953 7.02513 2.751C5.634 3.50161 4.42932 4.55523 3.50012 5.834V2.5H1.50013V9.5H8.50012V7.5H4.78713C5.57279 6.24482 6.67097 5.21521 7.97412 4.512C9.21125 3.84554 10.5949 3.49773 12.0001 3.5C13.643 3.50026 15.2506 3.97662 16.6284 4.87143C18.0062 5.76625 19.0952 7.04117 19.7636 8.54194C20.4319 10.0427 20.6511 11.705 20.3944 13.3277C20.1378 14.9504 19.4164 16.464 18.3176 17.6853C17.2187 18.9066 15.7895 19.7833 14.2028 20.2093C12.6161 20.6353 10.94 20.5923 9.37719 20.0856C7.8144 19.5789 6.43194 18.6302 5.39708 17.3542C4.36222 16.0783 3.7193 14.5297 3.54612 12.896L3.44212 11.901L1.45312 12.11L1.55713 13.104C2.11013 18.384 6.57312 22.5 12.0001 22.5C17.7991 22.5 22.5001 17.799 22.5001 12ZM11.0001 6V12.414L14.5001 15.914L15.9141 14.5L13.0001 11.586V6H11.0001Z" fill="#0051BA"/>
</svg>
