<svg width="41" height="42" viewBox="0 0 41 42" fill="none" xmlns="http://www.w3.org/2000/svg">
<path d="M39.4557 20.7503C34.9057 20.7503 31.2411 18.2232 29.9766 16.9587H11.0182C9.75371 18.2232 6.08906 20.7503 1.53906 20.7503L1.86135 21.3987C2.33406 22.3438 3.06072 23.1385 3.95983 23.6937C4.85894 24.2489 5.89495 24.5427 6.95167 24.542H34.0469C35.103 24.542 36.1382 24.2479 37.0366 23.6927C37.935 23.1376 38.661 22.3432 39.1334 21.3987L39.4557 20.7503ZM33.7682 5.58366C31.0136 5.58366 28.5831 4.6566 26.8143 3.64612C24.9488 2.57876 24.0161 2.04603 23.5383 1.91901C23.0568 1.79199 22.4217 1.79199 21.1496 1.79199H19.8471C18.5731 1.79199 17.9361 1.79199 17.4584 1.91901C16.9787 2.04603 16.046 2.57876 14.1805 3.64422C12.4117 4.65849 9.98121 5.58366 7.22656 5.58366L7.54885 6.23203C8.02156 7.17713 8.74822 7.97184 9.64733 8.52705C10.5464 9.08225 11.5824 9.37599 12.6392 9.37533H28.3594C29.4155 9.37529 30.4507 9.08122 31.3491 8.52605C32.2475 7.97088 32.9735 7.17655 33.4459 6.23203L33.7682 5.58366ZM29.9766 16.9587V9.37533ZM11.0182 16.9587V9.37533ZM33.7682 39.7087V24.542ZM7.22656 39.7087V24.542ZM3.4349 39.7087H37.5599ZM16.7057 39.7087V34.0212C16.7057 33.0155 17.1052 32.0511 17.8163 31.34C18.5274 30.629 19.4918 30.2295 20.4974 30.2295C21.503 30.2295 22.4674 30.629 23.1785 31.34C23.8896 32.0511 24.2891 33.0155 24.2891 34.0212V39.7087" fill="#0051BA"/>
<path d="M29.9766 16.9587C31.2411 18.2232 34.9057 20.7503 39.4557 20.7503L39.1334 21.3987C38.661 22.3432 37.935 23.1376 37.0366 23.6927C36.1382 24.2479 35.103 24.542 34.0469 24.542H6.95167C5.89495 24.5427 4.85894 24.2489 3.95983 23.6937C3.06072 23.1385 2.33406 22.3438 1.86135 21.3987L1.53906 20.7503C6.08906 20.7503 9.75371 18.2232 11.0182 16.9587M29.9766 16.9587H11.0182M29.9766 16.9587V9.37533M11.0182 16.9587V9.37533M33.7682 39.7087V24.542M7.22656 39.7087V24.542M3.4349 39.7087H37.5599M16.7057 39.7087V34.0212C16.7057 33.0155 17.1052 32.0511 17.8163 31.34C18.5274 30.629 19.4918 30.2295 20.4974 30.2295C21.503 30.2295 22.4674 30.629 23.1785 31.34C23.8896 32.0511 24.2891 33.0155 24.2891 34.0212V39.7087M33.7682 5.58366C31.0136 5.58366 28.5831 4.6566 26.8143 3.64612C24.9488 2.57876 24.0161 2.04603 23.5383 1.91901C23.0568 1.79199 22.4217 1.79199 21.1496 1.79199H19.8471C18.5731 1.79199 17.9361 1.79199 17.4584 1.91901C16.9787 2.04603 16.046 2.57876 14.1805 3.64422C12.4117 4.65849 9.98121 5.58366 7.22656 5.58366L7.54885 6.23203C8.02156 7.17713 8.74822 7.97184 9.64733 8.52705C10.5464 9.08225 11.5824 9.37599 12.6392 9.37533H28.3594C29.4155 9.37529 30.4507 9.08122 31.3491 8.52605C32.2475 7.97088 32.9735 7.17655 33.4459 6.23203L33.7682 5.58366Z" stroke="#0051BA" stroke-width="2.88462" stroke-linecap="round" stroke-linejoin="round"/>
</svg>
