<svg width="11" height="12" viewBox="0 0 11 12" fill="none" xmlns="http://www.w3.org/2000/svg">
<path d="M10.0043 4.96334C6.52847 4.48588 3.53118 7.06671 3.73257 10.4899M2.41797 3.91692C2.41797 4.19584 2.52877 4.46334 2.726 4.66057C2.92323 4.8578 3.19073 4.9686 3.46965 4.9686C3.74858 4.9686 4.01607 4.8578 4.2133 4.66057C4.41053 4.46334 4.52133 4.19584 4.52133 3.91692C4.52133 3.63799 4.41053 3.37049 4.2133 3.17327C4.01607 2.97604 3.74858 2.86523 3.46965 2.86523C3.19073 2.86523 2.92323 2.97604 2.726 3.17327C2.52877 3.37049 2.41797 3.63799 2.41797 3.91692Z" stroke="#69510B" stroke-width="0.757212" stroke-linecap="round" stroke-linejoin="round"/>
<path d="M0.578125 6.57946C2.03996 6.37701 3.35194 7.08322 4.0613 8.20957" stroke="#69510B" stroke-width="0.757212" stroke-linecap="round" stroke-linejoin="round"/>
<path d="M0.578125 4.65249C0.578125 3.47461 0.578125 2.88567 0.807392 2.43555C1.00905 2.03979 1.33081 1.71803 1.72656 1.51638C2.17668 1.28711 2.76562 1.28711 3.94351 1.28711H6.67788C7.85577 1.28711 8.44471 1.28711 8.89483 1.51638C9.29059 1.71803 9.61235 2.03979 9.814 2.43555C10.0433 2.88567 10.0433 3.47461 10.0433 4.65249V7.38687C10.0433 8.56475 10.0433 9.1537 9.814 9.60382C9.61235 9.99957 9.29059 10.3213 8.89483 10.523C8.44471 10.7523 7.85577 10.7523 6.67788 10.7523H3.94351C2.76562 10.7523 2.17668 10.7523 1.72656 10.523C1.33081 10.3213 1.00905 9.99957 0.807392 9.60382C0.578125 9.1537 0.578125 8.56475 0.578125 7.38687V4.65249Z" stroke="#69510B" stroke-width="0.757212" stroke-linecap="round" stroke-linejoin="round"/>
</svg>
