<svg width="24" height="25" viewBox="0 0 24 25" fill="none" xmlns="http://www.w3.org/2000/svg">
<path d="M23 4.48047V10.4805H17" stroke="#13378D" stroke-width="2" stroke-linecap="round" stroke-linejoin="round"/>
<path d="M20.4899 15.4805C19.8399 17.3204 18.6094 18.8992 16.984 19.979C15.3586 21.0588 13.4263 21.581 11.4783 21.4671C9.53026 21.3531 7.67203 20.6091 6.18363 19.3472C4.69524 18.0852 3.6573 16.3737 3.22625 14.4705C2.79519 12.5674 2.99436 10.5757 3.79374 8.79555C4.59313 7.01543 5.94942 5.54335 7.65823 4.60112C9.36705 3.6589 11.3358 3.29758 13.2678 3.57163C15.1999 3.84567 16.9905 4.74022 18.3699 6.12048L22.9999 10.4805" stroke="#13378D" stroke-width="2" stroke-linecap="round" stroke-linejoin="round"/>
<path d="M11 8.48047V14.4805H15.5" stroke="#13378D" stroke-width="2" stroke-linecap="round" stroke-linejoin="round"/>
</svg>
