<svg width="24" height="26" viewBox="0 0 24 26" fill="none" xmlns="http://www.w3.org/2000/svg">
<path d="M2.76923 4.43945C1.24062 4.43945 0 5.72969 0 7.31945V18.8395C0 20.4292 1.24062 21.7195 2.76923 21.7195H21.2308C22.7594 21.7195 24 20.4292 24 18.8395V7.31945C24 5.72969 22.7594 4.43945 21.2308 4.43945H2.76923ZM2.76923 6.35945H21.2308C21.7394 6.35945 22.1538 6.79049 22.1538 7.31945V7.79945L12 13.4999L1.84615 7.79945V7.31945C1.84615 6.79049 2.26062 6.35945 2.76923 6.35945ZM1.84615 8.06921L7.87477 12.9595L1.96154 19.2599L9.17354 13.9195L12 15.8097L14.8274 13.9195L22.0385 19.2599L16.1252 12.9595L22.1538 8.06921V18.8395C22.1487 18.9873 22.1091 19.1316 22.0385 19.2599C21.8862 19.5719 21.5898 19.7995 21.2308 19.7995H2.76923C2.41015 19.7995 2.11385 19.5729 1.96154 19.2599C1.891 19.1319 1.85141 18.9869 1.84615 18.8395V8.06921Z" fill="#0950AC"/>
</svg>
