<svg width="32" height="33" viewBox="0 0 32 33" fill="none" xmlns="http://www.w3.org/2000/svg">
<rect y="0.480469" width="32" height="32" rx="16" fill="#13378D"/>
<path d="M16 26.4805C21.5228 26.4805 26 22.0033 26 16.4805C26 10.9576 21.5228 6.48047 16 6.48047C10.4772 6.48047 6 10.9576 6 16.4805C6 22.0033 10.4772 26.4805 16 26.4805Z" stroke="white" stroke-width="1.5" stroke-linecap="round" stroke-linejoin="round"/>
<path d="M6 16.4805H26" stroke="white" stroke-width="1.5" stroke-linecap="round" stroke-linejoin="round"/>
<path d="M16 6.48047C18.5013 9.21882 19.9228 12.7725 20 16.4805C19.9228 20.1884 18.5013 23.7421 16 26.4805C13.4987 23.7421 12.0772 20.1884 12 16.4805C12.0772 12.7725 13.4987 9.21882 16 6.48047Z" stroke="white" stroke-width="1.5" stroke-linecap="round" stroke-linejoin="round"/>
</svg>
